<mxfile host="app.diagrams.net" agent="Mozilla/5.0 (Windows NT 10.0; Win64; x64) AppleWebKit/537.36 (KHTML, like Gecko) Chrome/135.0.0.0 Safari/537.36" version="26.2.6">
  <diagram id="C5RBs43oDa-KdzZeNtuy" name="Page-1">
    <mxGraphModel dx="2521" dy="811" grid="1" gridSize="10" guides="1" tooltips="1" connect="1" arrows="1" fold="1" page="1" pageScale="1" pageWidth="827" pageHeight="1169" math="0" shadow="0">
      <root>
        <mxCell id="WIyWlLk6GJQsqaUBKTNV-0" />
        <mxCell id="WIyWlLk6GJQsqaUBKTNV-1" parent="WIyWlLk6GJQsqaUBKTNV-0" />
        <mxCell id="aKO-nOTtExuXH8D4YMzO-0" value="" style="rounded=1;whiteSpace=wrap;html=1;arcSize=3;strokeColor=default;fillColor=#FFF58E;" vertex="1" parent="WIyWlLk6GJQsqaUBKTNV-1">
          <mxGeometry x="-16" y="110" width="120" height="60" as="geometry" />
        </mxCell>
        <mxCell id="aKO-nOTtExuXH8D4YMzO-1" value="" style="endArrow=none;html=1;rounded=0;exitX=0;exitY=0.25;exitDx=0;exitDy=0;entryX=1;entryY=0.25;entryDx=0;entryDy=0;" edge="1" parent="WIyWlLk6GJQsqaUBKTNV-1">
          <mxGeometry width="50" height="50" relative="1" as="geometry">
            <mxPoint x="-15.999999999999943" y="128" as="sourcePoint" />
            <mxPoint x="104" y="128" as="targetPoint" />
          </mxGeometry>
        </mxCell>
        <UserObject label="&lt;span data-lucid-content=&quot;{&amp;quot;t&amp;quot;:&amp;quot;&lt;&lt;requirement&gt;&gt;&amp;quot;,&amp;quot;m&amp;quot;:[{&amp;quot;s&amp;quot;:0,&amp;quot;n&amp;quot;:&amp;quot;b&amp;quot;,&amp;quot;v&amp;quot;:true,&amp;quot;e&amp;quot;:15},{&amp;quot;s&amp;quot;:0,&amp;quot;n&amp;quot;:&amp;quot;f&amp;quot;,&amp;quot;v&amp;quot;:&amp;quot;Gentium Basic&amp;quot;,&amp;quot;e&amp;quot;:15},{&amp;quot;s&amp;quot;:0,&amp;quot;n&amp;quot;:&amp;quot;fc&amp;quot;,&amp;quot;v&amp;quot;:&amp;quot;Bold&amp;quot;,&amp;quot;e&amp;quot;:15},{&amp;quot;s&amp;quot;:0,&amp;quot;n&amp;quot;:&amp;quot;fid&amp;quot;,&amp;quot;v&amp;quot;:653,&amp;quot;e&amp;quot;:15},{&amp;quot;s&amp;quot;:0,&amp;quot;n&amp;quot;:&amp;quot;fsp&amp;quot;,&amp;quot;v&amp;quot;:&amp;quot;ss_presetShapeStyle1_textStyle&amp;quot;,&amp;quot;e&amp;quot;:15},{&amp;quot;s&amp;quot;:0,&amp;quot;n&amp;quot;:&amp;quot;s&amp;quot;,&amp;quot;v&amp;quot;:8.88888888888889,&amp;quot;e&amp;quot;:15}]}&quot; data-lucid-type=&quot;application/vnd.lucid.text&quot;&gt;&lt;span style=&quot;font-weight: bold;&quot;&gt;&amp;lt;&amp;lt;requirement&amp;gt;&amp;gt;&lt;/span&gt;&lt;/span&gt;" id="aKO-nOTtExuXH8D4YMzO-2">
          <mxCell style="text;whiteSpace=wrap;html=1;fontFamily=Georgia;verticalAlign=middle;align=center;fontSize=5;" vertex="1" parent="WIyWlLk6GJQsqaUBKTNV-1">
            <mxGeometry x="14" y="113" width="60" as="geometry" />
          </mxCell>
        </UserObject>
        <UserObject label="&lt;span data-lucid-content=&quot;{&amp;quot;t&amp;quot;:&amp;quot;Gestion des evenments  sportifs&amp;quot;,&amp;quot;m&amp;quot;:[{&amp;quot;s&amp;quot;:0,&amp;quot;n&amp;quot;:&amp;quot;fc&amp;quot;,&amp;quot;v&amp;quot;:&amp;quot;Bold&amp;quot;,&amp;quot;e&amp;quot;:31},{&amp;quot;s&amp;quot;:0,&amp;quot;n&amp;quot;:&amp;quot;fid&amp;quot;,&amp;quot;v&amp;quot;:653,&amp;quot;e&amp;quot;:31},{&amp;quot;s&amp;quot;:0,&amp;quot;n&amp;quot;:&amp;quot;fsp&amp;quot;,&amp;quot;v&amp;quot;:&amp;quot;ss_presetShapeStyle1_textStyle&amp;quot;,&amp;quot;e&amp;quot;:31},{&amp;quot;s&amp;quot;:0,&amp;quot;n&amp;quot;:&amp;quot;b&amp;quot;,&amp;quot;v&amp;quot;:true,&amp;quot;e&amp;quot;:31},{&amp;quot;s&amp;quot;:0,&amp;quot;n&amp;quot;:&amp;quot;f&amp;quot;,&amp;quot;v&amp;quot;:&amp;quot;Gentium Basic&amp;quot;,&amp;quot;e&amp;quot;:31},{&amp;quot;s&amp;quot;:0,&amp;quot;n&amp;quot;:&amp;quot;s&amp;quot;,&amp;quot;v&amp;quot;:8.88888888888889,&amp;quot;e&amp;quot;:31},{&amp;quot;s&amp;quot;:0,&amp;quot;n&amp;quot;:&amp;quot;c&amp;quot;,&amp;quot;v&amp;quot;:&amp;quot;#000000ff&amp;quot;,&amp;quot;e&amp;quot;:12},{&amp;quot;s&amp;quot;:22,&amp;quot;n&amp;quot;:&amp;quot;c&amp;quot;,&amp;quot;v&amp;quot;:&amp;quot;#000000ff&amp;quot;,&amp;quot;e&amp;quot;:31}]}&quot; data-lucid-type=&quot;application/vnd.lucid.text&quot;&gt;&lt;span style=&quot;font-weight: bold;&quot;&gt;Gestion des &lt;/span&gt;&lt;span style=&quot;font-weight: bold;&quot;&gt;evenments &lt;/span&gt;&lt;span style=&quot;font-weight: bold;&quot;&gt; sportifs&lt;/span&gt;&lt;/span&gt;" id="aKO-nOTtExuXH8D4YMzO-3">
          <mxCell style="text;whiteSpace=wrap;html=1;fontFamily=Georgia;verticalAlign=middle;align=center;fontSize=5;" vertex="1" parent="WIyWlLk6GJQsqaUBKTNV-1">
            <mxGeometry x="-16" y="120" width="120" as="geometry" />
          </mxCell>
        </UserObject>
        <UserObject label="&lt;div&gt;&lt;span data-lucid-content=&quot;{&amp;quot;t&amp;quot;:&amp;quot;Text=\&amp;quot;Le système doit permettre la gestion automatisée des evenments sportifs, incluant la planification, l&#39;organisation et le suivi des compétitions au seins de LENIM\&amp;quot;&amp;quot;,&amp;quot;m&amp;quot;:[{&amp;quot;s&amp;quot;:0,&amp;quot;n&amp;quot;:&amp;quot;a&amp;quot;,&amp;quot;v&amp;quot;:&amp;quot;left&amp;quot;},{&amp;quot;s&amp;quot;:0,&amp;quot;n&amp;quot;:&amp;quot;s&amp;quot;,&amp;quot;v&amp;quot;:6.666666666666667,&amp;quot;e&amp;quot;:168},{&amp;quot;s&amp;quot;:0,&amp;quot;n&amp;quot;:&amp;quot;fc&amp;quot;,&amp;quot;v&amp;quot;:&amp;quot;Bold&amp;quot;,&amp;quot;e&amp;quot;:168},{&amp;quot;s&amp;quot;:0,&amp;quot;n&amp;quot;:&amp;quot;f&amp;quot;,&amp;quot;v&amp;quot;:&amp;quot;Bergamo Std&amp;quot;,&amp;quot;e&amp;quot;:168},{&amp;quot;s&amp;quot;:0,&amp;quot;n&amp;quot;:&amp;quot;b&amp;quot;,&amp;quot;v&amp;quot;:true,&amp;quot;e&amp;quot;:168},{&amp;quot;s&amp;quot;:0,&amp;quot;n&amp;quot;:&amp;quot;fid&amp;quot;,&amp;quot;v&amp;quot;:219,&amp;quot;e&amp;quot;:168}]}&quot; data-lucid-type=&quot;application/vnd.lucid.text&quot;&gt;&lt;font style=&quot;font-size: 5px;&quot;&gt;&lt;span style=&quot;&quot; data-lucid-content=&quot;{&amp;quot;t&amp;quot;:&amp;quot;id=\&amp;quot;1\&amp;quot;&amp;quot;,&amp;quot;m&amp;quot;:[{&amp;quot;s&amp;quot;:0,&amp;quot;n&amp;quot;:&amp;quot;a&amp;quot;,&amp;quot;v&amp;quot;:&amp;quot;left&amp;quot;},{&amp;quot;s&amp;quot;:0,&amp;quot;n&amp;quot;:&amp;quot;b&amp;quot;,&amp;quot;v&amp;quot;:true,&amp;quot;e&amp;quot;:6},{&amp;quot;s&amp;quot;:0,&amp;quot;n&amp;quot;:&amp;quot;f&amp;quot;,&amp;quot;v&amp;quot;:&amp;quot;Gentium Basic&amp;quot;,&amp;quot;e&amp;quot;:6},{&amp;quot;s&amp;quot;:0,&amp;quot;n&amp;quot;:&amp;quot;fc&amp;quot;,&amp;quot;v&amp;quot;:&amp;quot;Bold&amp;quot;,&amp;quot;e&amp;quot;:6},{&amp;quot;s&amp;quot;:0,&amp;quot;n&amp;quot;:&amp;quot;fid&amp;quot;,&amp;quot;v&amp;quot;:653,&amp;quot;e&amp;quot;:6},{&amp;quot;s&amp;quot;:0,&amp;quot;n&amp;quot;:&amp;quot;fsp&amp;quot;,&amp;quot;v&amp;quot;:&amp;quot;ss_presetShapeStyle1_textStyle&amp;quot;,&amp;quot;e&amp;quot;:6},{&amp;quot;s&amp;quot;:0,&amp;quot;n&amp;quot;:&amp;quot;s&amp;quot;,&amp;quot;v&amp;quot;:6.666666666666667,&amp;quot;e&amp;quot;:6}]}&quot; data-lucid-type=&quot;application/vnd.lucid.text&quot;&gt;&lt;span style=&quot;font-weight: bold;&quot;&gt;&lt;font style=&quot;&quot;&gt;id=&quot;1&quot;&lt;/font&gt;&lt;/span&gt;&lt;/span&gt;&lt;span style=&quot;font-weight: bold;&quot;&gt;&lt;/span&gt;&lt;/font&gt;&lt;/span&gt;&lt;/div&gt;&lt;span data-lucid-content=&quot;{&amp;quot;t&amp;quot;:&amp;quot;Text=\&amp;quot;Le système doit permettre la gestion automatisée des evenments sportifs, incluant la planification, l&#39;organisation et le suivi des compétitions au seins de LENIM\&amp;quot;&amp;quot;,&amp;quot;m&amp;quot;:[{&amp;quot;s&amp;quot;:0,&amp;quot;n&amp;quot;:&amp;quot;a&amp;quot;,&amp;quot;v&amp;quot;:&amp;quot;left&amp;quot;},{&amp;quot;s&amp;quot;:0,&amp;quot;n&amp;quot;:&amp;quot;s&amp;quot;,&amp;quot;v&amp;quot;:6.666666666666667,&amp;quot;e&amp;quot;:168},{&amp;quot;s&amp;quot;:0,&amp;quot;n&amp;quot;:&amp;quot;fc&amp;quot;,&amp;quot;v&amp;quot;:&amp;quot;Bold&amp;quot;,&amp;quot;e&amp;quot;:168},{&amp;quot;s&amp;quot;:0,&amp;quot;n&amp;quot;:&amp;quot;f&amp;quot;,&amp;quot;v&amp;quot;:&amp;quot;Bergamo Std&amp;quot;,&amp;quot;e&amp;quot;:168},{&amp;quot;s&amp;quot;:0,&amp;quot;n&amp;quot;:&amp;quot;b&amp;quot;,&amp;quot;v&amp;quot;:true,&amp;quot;e&amp;quot;:168},{&amp;quot;s&amp;quot;:0,&amp;quot;n&amp;quot;:&amp;quot;fid&amp;quot;,&amp;quot;v&amp;quot;:219,&amp;quot;e&amp;quot;:168}]}&quot; data-lucid-type=&quot;application/vnd.lucid.text&quot;&gt;&lt;span style=&quot;font-weight: bold;&quot;&gt;Text=&quot;Le système doit permettre la gestion automatisée des evenments sportifs, incluant la planification, l&#39;organisation et le suivi des compétitions au seins de LENIM&quot;&lt;/span&gt;&lt;/span&gt;" id="aKO-nOTtExuXH8D4YMzO-4">
          <mxCell style="text;whiteSpace=wrap;html=1;fontFamily=Georgia;verticalAlign=middle;align=left;fontSize=4;" vertex="1" parent="WIyWlLk6GJQsqaUBKTNV-1">
            <mxGeometry x="-16" y="146" width="120" as="geometry" />
          </mxCell>
        </UserObject>
        <mxCell id="aKO-nOTtExuXH8D4YMzO-30" value="" style="endArrow=none;html=1;rounded=0;exitX=0;exitY=0.25;exitDx=0;exitDy=0;entryX=1;entryY=0.25;entryDx=0;entryDy=0;" edge="1" parent="WIyWlLk6GJQsqaUBKTNV-1">
          <mxGeometry width="50" height="50" relative="1" as="geometry">
            <mxPoint x="152" y="228" as="sourcePoint" />
            <mxPoint x="272" y="228" as="targetPoint" />
          </mxGeometry>
        </mxCell>
        <mxCell id="aKO-nOTtExuXH8D4YMzO-31" value="" style="rounded=1;whiteSpace=wrap;html=1;arcSize=3;strokeColor=default;fillColor=#FFF58E;" vertex="1" parent="WIyWlLk6GJQsqaUBKTNV-1">
          <mxGeometry x="152" y="210" width="120" height="60" as="geometry" />
        </mxCell>
        <UserObject label="&lt;span data-lucid-content=&quot;{&amp;quot;t&amp;quot;:&amp;quot;&lt;&lt;requirement&gt;&gt;&amp;quot;,&amp;quot;m&amp;quot;:[{&amp;quot;s&amp;quot;:0,&amp;quot;n&amp;quot;:&amp;quot;b&amp;quot;,&amp;quot;v&amp;quot;:true,&amp;quot;e&amp;quot;:15},{&amp;quot;s&amp;quot;:0,&amp;quot;n&amp;quot;:&amp;quot;f&amp;quot;,&amp;quot;v&amp;quot;:&amp;quot;Gentium Basic&amp;quot;,&amp;quot;e&amp;quot;:15},{&amp;quot;s&amp;quot;:0,&amp;quot;n&amp;quot;:&amp;quot;fc&amp;quot;,&amp;quot;v&amp;quot;:&amp;quot;Bold&amp;quot;,&amp;quot;e&amp;quot;:15},{&amp;quot;s&amp;quot;:0,&amp;quot;n&amp;quot;:&amp;quot;fid&amp;quot;,&amp;quot;v&amp;quot;:653,&amp;quot;e&amp;quot;:15},{&amp;quot;s&amp;quot;:0,&amp;quot;n&amp;quot;:&amp;quot;fsp&amp;quot;,&amp;quot;v&amp;quot;:&amp;quot;ss_presetShapeStyle1_textStyle&amp;quot;,&amp;quot;e&amp;quot;:15},{&amp;quot;s&amp;quot;:0,&amp;quot;n&amp;quot;:&amp;quot;s&amp;quot;,&amp;quot;v&amp;quot;:8.88888888888889,&amp;quot;e&amp;quot;:15}]}&quot; data-lucid-type=&quot;application/vnd.lucid.text&quot;&gt;&lt;span style=&quot;font-weight: bold;&quot;&gt;&amp;lt;&amp;lt;requirement&amp;gt;&amp;gt;&lt;/span&gt;&lt;/span&gt;" id="aKO-nOTtExuXH8D4YMzO-32">
          <mxCell style="text;whiteSpace=wrap;html=1;fontFamily=Georgia;verticalAlign=middle;align=center;fontSize=5;" vertex="1" parent="WIyWlLk6GJQsqaUBKTNV-1">
            <mxGeometry x="182" y="213" width="60" as="geometry" />
          </mxCell>
        </UserObject>
        <UserObject label="&lt;b&gt;organisation&amp;nbsp; des tournois sportif&amp;nbsp;&lt;/b&gt;" id="aKO-nOTtExuXH8D4YMzO-33">
          <mxCell style="text;whiteSpace=wrap;html=1;fontFamily=Georgia;verticalAlign=middle;align=center;fontSize=5;" vertex="1" parent="WIyWlLk6GJQsqaUBKTNV-1">
            <mxGeometry x="152" y="220" width="120" as="geometry" />
          </mxCell>
        </UserObject>
        <UserObject label="&lt;div style=&quot;overflow: auto; padding: 9.144px 13.716px; text-wrap-mode: wrap; word-break: break-all; margin-top: 0px !important; margin-bottom: 0px !important;&quot;&gt;&lt;div style=&quot;overflow: auto; padding: 9.144px 13.716px; text-wrap-mode: wrap; word-break: break-all; margin-top: 0px !important; margin-bottom: 0px !important;&quot;&gt;id=&quot;1.4&quot;&lt;br&gt;Text=&quot;L&#39;application doit gérer le cycle complet des&amp;nbsp; &amp;nbsp; &amp;nbsp; &amp;nbsp; tournois LENIM&lt;/div&gt;&lt;/div&gt;" id="aKO-nOTtExuXH8D4YMzO-34">
          <mxCell style="text;whiteSpace=wrap;html=1;fontFamily=Georgia;verticalAlign=middle;align=left;fontSize=4;fontColor=default;fontStyle=1" vertex="1" parent="WIyWlLk6GJQsqaUBKTNV-1">
            <mxGeometry x="132" y="236.5" width="170" height="22" as="geometry" />
          </mxCell>
        </UserObject>
        <mxCell id="aKO-nOTtExuXH8D4YMzO-35" value="" style="endArrow=none;html=1;rounded=0;exitX=0;exitY=0.25;exitDx=0;exitDy=0;entryX=1;entryY=0.25;entryDx=0;entryDy=0;" edge="1" parent="WIyWlLk6GJQsqaUBKTNV-1">
          <mxGeometry width="50" height="50" relative="1" as="geometry">
            <mxPoint x="152" y="230" as="sourcePoint" />
            <mxPoint x="272" y="230" as="targetPoint" />
          </mxGeometry>
        </mxCell>
        <mxCell id="aKO-nOTtExuXH8D4YMzO-36" value="" style="endArrow=none;html=1;rounded=0;exitX=0;exitY=0.25;exitDx=0;exitDy=0;entryX=1;entryY=0.25;entryDx=0;entryDy=0;" edge="1" parent="WIyWlLk6GJQsqaUBKTNV-1">
          <mxGeometry width="50" height="50" relative="1" as="geometry">
            <mxPoint x="-16" y="228" as="sourcePoint" />
            <mxPoint x="104" y="228" as="targetPoint" />
          </mxGeometry>
        </mxCell>
        <mxCell id="aKO-nOTtExuXH8D4YMzO-37" value="" style="rounded=1;whiteSpace=wrap;html=1;arcSize=3;strokeColor=default;fillColor=#FFF58E;" vertex="1" parent="WIyWlLk6GJQsqaUBKTNV-1">
          <mxGeometry x="-16" y="210" width="120" height="60" as="geometry" />
        </mxCell>
        <UserObject label="&lt;span data-lucid-content=&quot;{&amp;quot;t&amp;quot;:&amp;quot;&lt;&lt;requirement&gt;&gt;&amp;quot;,&amp;quot;m&amp;quot;:[{&amp;quot;s&amp;quot;:0,&amp;quot;n&amp;quot;:&amp;quot;b&amp;quot;,&amp;quot;v&amp;quot;:true,&amp;quot;e&amp;quot;:15},{&amp;quot;s&amp;quot;:0,&amp;quot;n&amp;quot;:&amp;quot;f&amp;quot;,&amp;quot;v&amp;quot;:&amp;quot;Gentium Basic&amp;quot;,&amp;quot;e&amp;quot;:15},{&amp;quot;s&amp;quot;:0,&amp;quot;n&amp;quot;:&amp;quot;fc&amp;quot;,&amp;quot;v&amp;quot;:&amp;quot;Bold&amp;quot;,&amp;quot;e&amp;quot;:15},{&amp;quot;s&amp;quot;:0,&amp;quot;n&amp;quot;:&amp;quot;fid&amp;quot;,&amp;quot;v&amp;quot;:653,&amp;quot;e&amp;quot;:15},{&amp;quot;s&amp;quot;:0,&amp;quot;n&amp;quot;:&amp;quot;fsp&amp;quot;,&amp;quot;v&amp;quot;:&amp;quot;ss_presetShapeStyle1_textStyle&amp;quot;,&amp;quot;e&amp;quot;:15},{&amp;quot;s&amp;quot;:0,&amp;quot;n&amp;quot;:&amp;quot;s&amp;quot;,&amp;quot;v&amp;quot;:8.88888888888889,&amp;quot;e&amp;quot;:15}]}&quot; data-lucid-type=&quot;application/vnd.lucid.text&quot;&gt;&lt;span style=&quot;font-weight: bold;&quot;&gt;&amp;lt;&amp;lt;requirement&amp;gt;&amp;gt;&lt;/span&gt;&lt;/span&gt;" id="aKO-nOTtExuXH8D4YMzO-38">
          <mxCell style="text;whiteSpace=wrap;html=1;fontFamily=Georgia;verticalAlign=middle;align=center;fontSize=5;" vertex="1" parent="WIyWlLk6GJQsqaUBKTNV-1">
            <mxGeometry x="14" y="213" width="60" as="geometry" />
          </mxCell>
        </UserObject>
        <UserObject label="&lt;pre style=&quot;text-align: left; overflow: auto; padding: 9.144px 13.716px; text-wrap-mode: wrap; word-break: break-all; margin-top: 0px !important; margin-bottom: 0px !important;&quot;&gt;&lt;font face=&quot;Georgia&quot;&gt;&lt;b&gt;système de  réservation&lt;/b&gt;&lt;/font&gt;&lt;/pre&gt;" id="aKO-nOTtExuXH8D4YMzO-39">
          <mxCell style="text;whiteSpace=wrap;html=1;fontFamily=Georgia;verticalAlign=middle;align=center;fontSize=6;" vertex="1" parent="WIyWlLk6GJQsqaUBKTNV-1">
            <mxGeometry x="-16" y="222" width="120" as="geometry" />
          </mxCell>
        </UserObject>
        <mxCell id="aKO-nOTtExuXH8D4YMzO-41" value="" style="endArrow=none;html=1;rounded=0;exitX=0;exitY=0.25;exitDx=0;exitDy=0;entryX=1;entryY=0.25;entryDx=0;entryDy=0;" edge="1" parent="WIyWlLk6GJQsqaUBKTNV-1">
          <mxGeometry width="50" height="50" relative="1" as="geometry">
            <mxPoint x="-16" y="230" as="sourcePoint" />
            <mxPoint x="104" y="230" as="targetPoint" />
          </mxGeometry>
        </mxCell>
        <mxCell id="aKO-nOTtExuXH8D4YMzO-44" value="&lt;br&gt;&lt;div&gt;&lt;pre style=&quot;overflow: auto; padding: 9.144px 13.716px; text-wrap-mode: wrap; word-break: break-all; margin-top: 0px !important; margin-bottom: 0px !important;&quot;&gt;&lt;font face=&quot;Georgia&quot;&gt;&lt;b&gt;&lt;span&gt;&lt;br&gt;id=&quot;1.3&quot;&lt;br&gt;&lt;/span&gt;Text=&quot;L&#39;application doit proposer un système de         réservation des terrains en ligne &lt;/b&gt;&lt;/font&gt;&lt;b style=&quot;white-space-collapse: collapse; background-color: transparent; color: light-dark(rgb(0, 0, 0), rgb(255, 255, 255)); font-family: Georgia;&quot;&gt;&quot;&lt;/b&gt;&lt;/pre&gt;&lt;div&gt;&lt;br style=&quot;font-family: Georgia;&quot;&gt;&lt;/div&gt;&lt;/div&gt;" style="text;html=1;align=left;verticalAlign=middle;whiteSpace=wrap;rounded=0;textShadow=1;fontColor=default;fontSize=4;" vertex="1" parent="WIyWlLk6GJQsqaUBKTNV-1">
          <mxGeometry x="-18" y="227.5" width="140" height="30" as="geometry" />
        </mxCell>
        <mxCell id="aKO-nOTtExuXH8D4YMzO-57" value="" style="endArrow=none;html=1;rounded=0;exitX=0;exitY=0.25;exitDx=0;exitDy=0;entryX=1;entryY=0.25;entryDx=0;entryDy=0;" edge="1" parent="WIyWlLk6GJQsqaUBKTNV-1">
          <mxGeometry width="50" height="50" relative="1" as="geometry">
            <mxPoint x="-336" y="228" as="sourcePoint" />
            <mxPoint x="-216" y="228" as="targetPoint" />
          </mxGeometry>
        </mxCell>
        <mxCell id="aKO-nOTtExuXH8D4YMzO-58" value="" style="rounded=1;whiteSpace=wrap;html=1;arcSize=3;strokeColor=default;fillColor=#FFF58E;" vertex="1" parent="WIyWlLk6GJQsqaUBKTNV-1">
          <mxGeometry x="-336" y="210" width="120" height="60" as="geometry" />
        </mxCell>
        <UserObject label="&lt;span data-lucid-content=&quot;{&amp;quot;t&amp;quot;:&amp;quot;&lt;&lt;requirement&gt;&gt;&amp;quot;,&amp;quot;m&amp;quot;:[{&amp;quot;s&amp;quot;:0,&amp;quot;n&amp;quot;:&amp;quot;b&amp;quot;,&amp;quot;v&amp;quot;:true,&amp;quot;e&amp;quot;:15},{&amp;quot;s&amp;quot;:0,&amp;quot;n&amp;quot;:&amp;quot;f&amp;quot;,&amp;quot;v&amp;quot;:&amp;quot;Gentium Basic&amp;quot;,&amp;quot;e&amp;quot;:15},{&amp;quot;s&amp;quot;:0,&amp;quot;n&amp;quot;:&amp;quot;fc&amp;quot;,&amp;quot;v&amp;quot;:&amp;quot;Bold&amp;quot;,&amp;quot;e&amp;quot;:15},{&amp;quot;s&amp;quot;:0,&amp;quot;n&amp;quot;:&amp;quot;fid&amp;quot;,&amp;quot;v&amp;quot;:653,&amp;quot;e&amp;quot;:15},{&amp;quot;s&amp;quot;:0,&amp;quot;n&amp;quot;:&amp;quot;fsp&amp;quot;,&amp;quot;v&amp;quot;:&amp;quot;ss_presetShapeStyle1_textStyle&amp;quot;,&amp;quot;e&amp;quot;:15},{&amp;quot;s&amp;quot;:0,&amp;quot;n&amp;quot;:&amp;quot;s&amp;quot;,&amp;quot;v&amp;quot;:8.88888888888889,&amp;quot;e&amp;quot;:15}]}&quot; data-lucid-type=&quot;application/vnd.lucid.text&quot;&gt;&lt;span style=&quot;font-weight: bold;&quot;&gt;&amp;lt;&amp;lt;requirement&amp;gt;&amp;gt;&lt;/span&gt;&lt;/span&gt;" id="aKO-nOTtExuXH8D4YMzO-59">
          <mxCell style="text;whiteSpace=wrap;html=1;fontFamily=Georgia;verticalAlign=middle;align=center;fontSize=5;" vertex="1" parent="WIyWlLk6GJQsqaUBKTNV-1">
            <mxGeometry x="-306" y="213" width="60" as="geometry" />
          </mxCell>
        </UserObject>
        <UserObject label="&lt;font&gt;&lt;span data-lucid-content=&quot;{&amp;quot;t&amp;quot;:&amp;quot;Gestion des evenments  sportifs&amp;quot;,&amp;quot;m&amp;quot;:[{&amp;quot;s&amp;quot;:0,&amp;quot;n&amp;quot;:&amp;quot;fc&amp;quot;,&amp;quot;v&amp;quot;:&amp;quot;Bold&amp;quot;,&amp;quot;e&amp;quot;:31},{&amp;quot;s&amp;quot;:0,&amp;quot;n&amp;quot;:&amp;quot;fid&amp;quot;,&amp;quot;v&amp;quot;:653,&amp;quot;e&amp;quot;:31},{&amp;quot;s&amp;quot;:0,&amp;quot;n&amp;quot;:&amp;quot;fsp&amp;quot;,&amp;quot;v&amp;quot;:&amp;quot;ss_presetShapeStyle1_textStyle&amp;quot;,&amp;quot;e&amp;quot;:31},{&amp;quot;s&amp;quot;:0,&amp;quot;n&amp;quot;:&amp;quot;b&amp;quot;,&amp;quot;v&amp;quot;:true,&amp;quot;e&amp;quot;:31},{&amp;quot;s&amp;quot;:0,&amp;quot;n&amp;quot;:&amp;quot;f&amp;quot;,&amp;quot;v&amp;quot;:&amp;quot;Gentium Basic&amp;quot;,&amp;quot;e&amp;quot;:31},{&amp;quot;s&amp;quot;:0,&amp;quot;n&amp;quot;:&amp;quot;s&amp;quot;,&amp;quot;v&amp;quot;:8.88888888888889,&amp;quot;e&amp;quot;:31},{&amp;quot;s&amp;quot;:0,&amp;quot;n&amp;quot;:&amp;quot;c&amp;quot;,&amp;quot;v&amp;quot;:&amp;quot;#000000ff&amp;quot;,&amp;quot;e&amp;quot;:12},{&amp;quot;s&amp;quot;:22,&amp;quot;n&amp;quot;:&amp;quot;c&amp;quot;,&amp;quot;v&amp;quot;:&amp;quot;#000000ff&amp;quot;,&amp;quot;e&amp;quot;:31}]}&quot; data-lucid-type=&quot;application/vnd.lucid.text&quot;&gt;&lt;span style=&quot;font-weight: bold;&quot;&gt;Gestion des&amp;nbsp;&lt;/span&gt;&lt;/span&gt;&lt;span style=&quot;font-weight: 700; text-align: left;&quot;&gt;installations&amp;nbsp;&lt;/span&gt;&lt;/font&gt;" id="aKO-nOTtExuXH8D4YMzO-60">
          <mxCell style="text;whiteSpace=wrap;html=1;fontFamily=Georgia;verticalAlign=middle;align=center;fontSize=5;" vertex="1" parent="WIyWlLk6GJQsqaUBKTNV-1">
            <mxGeometry x="-336" y="222" width="120" as="geometry" />
          </mxCell>
        </UserObject>
        <mxCell id="aKO-nOTtExuXH8D4YMzO-61" value="" style="endArrow=none;html=1;rounded=0;exitX=0;exitY=0.25;exitDx=0;exitDy=0;entryX=1;entryY=0.25;entryDx=0;entryDy=0;" edge="1" parent="WIyWlLk6GJQsqaUBKTNV-1">
          <mxGeometry width="50" height="50" relative="1" as="geometry">
            <mxPoint x="-336" y="230" as="sourcePoint" />
            <mxPoint x="-216" y="230" as="targetPoint" />
          </mxGeometry>
        </mxCell>
        <mxCell id="aKO-nOTtExuXH8D4YMzO-62" value="&lt;div&gt;&lt;div&gt;&lt;div style=&quot;overflow: auto; padding: 9.144px 13.716px; text-wrap-mode: wrap; word-break: break-all; margin-top: 0px !important; margin-bottom: 0px !important;&quot;&gt;id=&quot;1.2&quot;&lt;br&gt;Text=&quot;L&#39;application doit afficher les horaires de la salle de sport&amp;nbsp; &amp;nbsp;&quot;&lt;/div&gt;&lt;/div&gt;&lt;/div&gt;" style="text;html=1;align=left;verticalAlign=middle;whiteSpace=wrap;rounded=0;textShadow=1;fontColor=default;fontSize=4;fontFamily=Georgia;fontStyle=1" vertex="1" parent="WIyWlLk6GJQsqaUBKTNV-1">
          <mxGeometry x="-348" y="237.5" width="132" height="20" as="geometry" />
        </mxCell>
        <mxCell id="aKO-nOTtExuXH8D4YMzO-63" value="" style="endArrow=circlePlus;html=1;rounded=0;exitX=0.5;exitY=0;exitDx=0;exitDy=0;entryX=0.5;entryY=1;entryDx=0;entryDy=0;endFill=0;" edge="1" parent="WIyWlLk6GJQsqaUBKTNV-1" target="aKO-nOTtExuXH8D4YMzO-0">
          <mxGeometry width="50" height="50" relative="1" as="geometry">
            <mxPoint x="43.870000000000005" y="210" as="sourcePoint" />
            <mxPoint x="43.870000000000005" y="170" as="targetPoint" />
          </mxGeometry>
        </mxCell>
        <mxCell id="aKO-nOTtExuXH8D4YMzO-64" value="" style="endArrow=circlePlus;html=1;rounded=0;exitX=0.485;exitY=-0.012;exitDx=0;exitDy=0;entryX=0;entryY=0.75;entryDx=0;entryDy=0;endFill=0;exitPerimeter=0;" edge="1" parent="WIyWlLk6GJQsqaUBKTNV-1" source="aKO-nOTtExuXH8D4YMzO-58" target="aKO-nOTtExuXH8D4YMzO-0">
          <mxGeometry width="50" height="50" relative="1" as="geometry">
            <mxPoint x="53.870000000000005" y="220" as="sourcePoint" />
            <mxPoint x="54" y="180" as="targetPoint" />
            <Array as="points">
              <mxPoint x="-278" y="160" />
            </Array>
          </mxGeometry>
        </mxCell>
        <mxCell id="aKO-nOTtExuXH8D4YMzO-65" value="" style="endArrow=circlePlus;html=1;rounded=0;exitX=0.579;exitY=-0.016;exitDx=0;exitDy=0;entryX=1.015;entryY=0.647;entryDx=0;entryDy=0;endFill=0;entryPerimeter=0;exitPerimeter=0;" edge="1" parent="WIyWlLk6GJQsqaUBKTNV-1">
          <mxGeometry width="50" height="50" relative="1" as="geometry">
            <mxPoint x="219.68000000000006" y="210.00000000000003" as="sourcePoint" />
            <mxPoint x="103.99999999999994" y="149.77999999999997" as="targetPoint" />
            <Array as="points">
              <mxPoint x="220.20000000000005" y="150.95999999999998" />
            </Array>
          </mxGeometry>
        </mxCell>
        <mxCell id="aKO-nOTtExuXH8D4YMzO-66" value="" style="endArrow=none;html=1;rounded=0;exitX=0;exitY=0.25;exitDx=0;exitDy=0;entryX=1;entryY=0.25;entryDx=0;entryDy=0;" edge="1" parent="WIyWlLk6GJQsqaUBKTNV-1">
          <mxGeometry width="50" height="50" relative="1" as="geometry">
            <mxPoint x="242" y="318" as="sourcePoint" />
            <mxPoint x="362" y="318" as="targetPoint" />
          </mxGeometry>
        </mxCell>
        <mxCell id="aKO-nOTtExuXH8D4YMzO-67" value="" style="rounded=1;whiteSpace=wrap;html=1;arcSize=3;strokeColor=default;fillColor=#FFF58E;" vertex="1" parent="WIyWlLk6GJQsqaUBKTNV-1">
          <mxGeometry x="242" y="300" width="120" height="60" as="geometry" />
        </mxCell>
        <UserObject label="&lt;span data-lucid-content=&quot;{&amp;quot;t&amp;quot;:&amp;quot;&lt;&lt;requirement&gt;&gt;&amp;quot;,&amp;quot;m&amp;quot;:[{&amp;quot;s&amp;quot;:0,&amp;quot;n&amp;quot;:&amp;quot;b&amp;quot;,&amp;quot;v&amp;quot;:true,&amp;quot;e&amp;quot;:15},{&amp;quot;s&amp;quot;:0,&amp;quot;n&amp;quot;:&amp;quot;f&amp;quot;,&amp;quot;v&amp;quot;:&amp;quot;Gentium Basic&amp;quot;,&amp;quot;e&amp;quot;:15},{&amp;quot;s&amp;quot;:0,&amp;quot;n&amp;quot;:&amp;quot;fc&amp;quot;,&amp;quot;v&amp;quot;:&amp;quot;Bold&amp;quot;,&amp;quot;e&amp;quot;:15},{&amp;quot;s&amp;quot;:0,&amp;quot;n&amp;quot;:&amp;quot;fid&amp;quot;,&amp;quot;v&amp;quot;:653,&amp;quot;e&amp;quot;:15},{&amp;quot;s&amp;quot;:0,&amp;quot;n&amp;quot;:&amp;quot;fsp&amp;quot;,&amp;quot;v&amp;quot;:&amp;quot;ss_presetShapeStyle1_textStyle&amp;quot;,&amp;quot;e&amp;quot;:15},{&amp;quot;s&amp;quot;:0,&amp;quot;n&amp;quot;:&amp;quot;s&amp;quot;,&amp;quot;v&amp;quot;:8.88888888888889,&amp;quot;e&amp;quot;:15}]}&quot; data-lucid-type=&quot;application/vnd.lucid.text&quot;&gt;&lt;span style=&quot;font-weight: bold;&quot;&gt;&amp;lt;&amp;lt;requirement&amp;gt;&amp;gt;&lt;/span&gt;&lt;/span&gt;" id="aKO-nOTtExuXH8D4YMzO-68">
          <mxCell style="text;whiteSpace=wrap;html=1;fontFamily=Georgia;verticalAlign=middle;align=center;fontSize=5;" vertex="1" parent="WIyWlLk6GJQsqaUBKTNV-1">
            <mxGeometry x="272" y="303" width="60" as="geometry" />
          </mxCell>
        </UserObject>
        <UserObject label="&lt;b&gt;creation de tournois&lt;/b&gt;" id="aKO-nOTtExuXH8D4YMzO-69">
          <mxCell style="text;whiteSpace=wrap;html=1;fontFamily=Georgia;verticalAlign=middle;align=center;fontSize=5;" vertex="1" parent="WIyWlLk6GJQsqaUBKTNV-1">
            <mxGeometry x="242" y="310" width="120" as="geometry" />
          </mxCell>
        </UserObject>
        <mxCell id="aKO-nOTtExuXH8D4YMzO-70" value="" style="endArrow=none;html=1;rounded=0;exitX=0;exitY=0.25;exitDx=0;exitDy=0;entryX=1;entryY=0.25;entryDx=0;entryDy=0;" edge="1" parent="WIyWlLk6GJQsqaUBKTNV-1">
          <mxGeometry width="50" height="50" relative="1" as="geometry">
            <mxPoint x="242" y="320" as="sourcePoint" />
            <mxPoint x="362" y="320" as="targetPoint" />
          </mxGeometry>
        </mxCell>
        <UserObject label="&lt;div style=&quot;overflow: auto; padding: 9.144px 13.716px; text-wrap-mode: wrap; word-break: break-all; text-align: start; margin-top: 0px !important; margin-bottom: 0px !important;&quot;&gt;id=&quot;1.4.1&quot;&amp;nbsp; &amp;nbsp; &amp;nbsp; &amp;nbsp; &amp;nbsp; &amp;nbsp; &amp;nbsp; &amp;nbsp; &amp;nbsp; &amp;nbsp; &amp;nbsp; &amp;nbsp; &amp;nbsp; &amp;nbsp; &amp;nbsp; &amp;nbsp; &amp;nbsp; &amp;nbsp; &amp;nbsp; &amp;nbsp; &amp;nbsp; &amp;nbsp; &amp;nbsp; &amp;nbsp; &amp;nbsp; &amp;nbsp; &amp;nbsp; &amp;nbsp; &amp;nbsp; &amp;nbsp; &amp;nbsp; &amp;nbsp; &amp;nbsp; &amp;nbsp; &amp;nbsp; &amp;nbsp; &amp;nbsp; &amp;nbsp; &amp;nbsp; &amp;nbsp; &amp;nbsp; &amp;nbsp; &amp;nbsp; &amp;nbsp;T&lt;span style=&quot;background-color: transparent; color: light-dark(rgb(0, 0, 0), rgb(255, 255, 255));&quot;&gt;ext=&quot;&lt;/span&gt;L&#39;application doit gérer la&amp;nbsp;création de tournois et&amp;nbsp; l&lt;span style=&quot;background-color: transparent; color: light-dark(rgb(0, 0, 0), rgb(255, 255, 255));&quot;&gt;es inscriptions et la validation les&amp;nbsp; équipes&lt;/span&gt;&lt;/div&gt;" id="aKO-nOTtExuXH8D4YMzO-71">
          <mxCell style="text;whiteSpace=wrap;html=1;fontFamily=Georgia;verticalAlign=middle;align=center;fontSize=4;fontColor=default;fontStyle=1" vertex="1" parent="WIyWlLk6GJQsqaUBKTNV-1">
            <mxGeometry x="232" y="340" width="140" as="geometry" />
          </mxCell>
        </UserObject>
        <mxCell id="aKO-nOTtExuXH8D4YMzO-72" value="" style="endArrow=none;html=1;rounded=0;exitX=0;exitY=0.25;exitDx=0;exitDy=0;entryX=1;entryY=0.25;entryDx=0;entryDy=0;" edge="1" parent="WIyWlLk6GJQsqaUBKTNV-1">
          <mxGeometry width="50" height="50" relative="1" as="geometry">
            <mxPoint x="317" y="245.5" as="sourcePoint" />
            <mxPoint x="437" y="245.5" as="targetPoint" />
          </mxGeometry>
        </mxCell>
        <mxCell id="aKO-nOTtExuXH8D4YMzO-73" value="" style="rounded=1;whiteSpace=wrap;html=1;arcSize=3;strokeColor=default;fillColor=#FFF58E;" vertex="1" parent="WIyWlLk6GJQsqaUBKTNV-1">
          <mxGeometry x="317" y="227.5" width="120" height="60" as="geometry" />
        </mxCell>
        <UserObject label="&lt;span data-lucid-content=&quot;{&amp;quot;t&amp;quot;:&amp;quot;&lt;&lt;requirement&gt;&gt;&amp;quot;,&amp;quot;m&amp;quot;:[{&amp;quot;s&amp;quot;:0,&amp;quot;n&amp;quot;:&amp;quot;b&amp;quot;,&amp;quot;v&amp;quot;:true,&amp;quot;e&amp;quot;:15},{&amp;quot;s&amp;quot;:0,&amp;quot;n&amp;quot;:&amp;quot;f&amp;quot;,&amp;quot;v&amp;quot;:&amp;quot;Gentium Basic&amp;quot;,&amp;quot;e&amp;quot;:15},{&amp;quot;s&amp;quot;:0,&amp;quot;n&amp;quot;:&amp;quot;fc&amp;quot;,&amp;quot;v&amp;quot;:&amp;quot;Bold&amp;quot;,&amp;quot;e&amp;quot;:15},{&amp;quot;s&amp;quot;:0,&amp;quot;n&amp;quot;:&amp;quot;fid&amp;quot;,&amp;quot;v&amp;quot;:653,&amp;quot;e&amp;quot;:15},{&amp;quot;s&amp;quot;:0,&amp;quot;n&amp;quot;:&amp;quot;fsp&amp;quot;,&amp;quot;v&amp;quot;:&amp;quot;ss_presetShapeStyle1_textStyle&amp;quot;,&amp;quot;e&amp;quot;:15},{&amp;quot;s&amp;quot;:0,&amp;quot;n&amp;quot;:&amp;quot;s&amp;quot;,&amp;quot;v&amp;quot;:8.88888888888889,&amp;quot;e&amp;quot;:15}]}&quot; data-lucid-type=&quot;application/vnd.lucid.text&quot;&gt;&lt;span style=&quot;font-weight: bold;&quot;&gt;&amp;lt;&amp;lt;requirement&amp;gt;&amp;gt;&lt;/span&gt;&lt;/span&gt;" id="aKO-nOTtExuXH8D4YMzO-74">
          <mxCell style="text;whiteSpace=wrap;html=1;fontFamily=Georgia;verticalAlign=middle;align=center;fontSize=5;" vertex="1" parent="WIyWlLk6GJQsqaUBKTNV-1">
            <mxGeometry x="347" y="230.5" width="60" as="geometry" />
          </mxCell>
        </UserObject>
        <UserObject label="&lt;b&gt;Système de notification&lt;/b&gt;" id="aKO-nOTtExuXH8D4YMzO-75">
          <mxCell style="text;whiteSpace=wrap;html=1;fontFamily=Georgia;verticalAlign=middle;align=center;fontSize=5;" vertex="1" parent="WIyWlLk6GJQsqaUBKTNV-1">
            <mxGeometry x="317" y="237.5" width="120" as="geometry" />
          </mxCell>
        </UserObject>
        <mxCell id="aKO-nOTtExuXH8D4YMzO-76" value="" style="endArrow=none;html=1;rounded=0;exitX=0;exitY=0.25;exitDx=0;exitDy=0;entryX=1;entryY=0.25;entryDx=0;entryDy=0;" edge="1" parent="WIyWlLk6GJQsqaUBKTNV-1">
          <mxGeometry width="50" height="50" relative="1" as="geometry">
            <mxPoint x="317" y="247.5" as="sourcePoint" />
            <mxPoint x="437" y="247.5" as="targetPoint" />
          </mxGeometry>
        </mxCell>
        <UserObject label="&lt;div style=&quot;overflow: auto; padding: 9.144px 13.716px; text-wrap-mode: wrap; word-break: break-all; text-align: start; margin-top: 0px !important; margin-bottom: 0px !important;&quot;&gt;&lt;div style=&quot;overflow: auto; padding: 9.144px 13.716px; text-wrap-mode: wrap; word-break: break-all; margin-top: 0px !important; margin-bottom: 0px !important;&quot;&gt;id=&quot;1.4.2&quot;,&amp;nbsp; &amp;nbsp; &amp;nbsp; &amp;nbsp; &amp;nbsp; &amp;nbsp; &amp;nbsp; &amp;nbsp; &amp;nbsp; &amp;nbsp; &amp;nbsp; &amp;nbsp; &amp;nbsp; &amp;nbsp; &amp;nbsp; &amp;nbsp; &amp;nbsp; &amp;nbsp; &amp;nbsp; &amp;nbsp; &amp;nbsp; &amp;nbsp; &amp;nbsp; &amp;nbsp; &amp;nbsp; &amp;nbsp; &amp;nbsp; &amp;nbsp; &amp;nbsp; &amp;nbsp; &amp;nbsp; &amp;nbsp; &amp;nbsp; &amp;nbsp; &amp;nbsp; &amp;nbsp; &amp;nbsp; &amp;nbsp; &amp;nbsp; &amp;nbsp; &amp;nbsp; &amp;nbsp; &amp;nbsp; &amp;nbsp;Text=&quot;l&#39;application doit notifier les participants (débuts de matchs, résultats)&lt;/div&gt;&lt;/div&gt;" id="aKO-nOTtExuXH8D4YMzO-77">
          <mxCell style="text;whiteSpace=wrap;html=1;fontFamily=Georgia;verticalAlign=middle;align=center;fontSize=4;fontColor=default;fontStyle=1;" vertex="1" parent="WIyWlLk6GJQsqaUBKTNV-1">
            <mxGeometry x="297" y="262" width="165" as="geometry" />
          </mxCell>
        </UserObject>
        <mxCell id="aKO-nOTtExuXH8D4YMzO-78" value="" style="endArrow=none;html=1;rounded=0;exitX=0;exitY=0.25;exitDx=0;exitDy=0;entryX=1;entryY=0.25;entryDx=0;entryDy=0;" edge="1" parent="WIyWlLk6GJQsqaUBKTNV-1">
          <mxGeometry width="50" height="50" relative="1" as="geometry">
            <mxPoint x="317" y="174.5" as="sourcePoint" />
            <mxPoint x="437" y="174.5" as="targetPoint" />
          </mxGeometry>
        </mxCell>
        <mxCell id="aKO-nOTtExuXH8D4YMzO-79" value="" style="rounded=1;whiteSpace=wrap;html=1;arcSize=3;strokeColor=default;fillColor=#FFF58E;" vertex="1" parent="WIyWlLk6GJQsqaUBKTNV-1">
          <mxGeometry x="317" y="156.5" width="120" height="60" as="geometry" />
        </mxCell>
        <UserObject label="&lt;span data-lucid-content=&quot;{&amp;quot;t&amp;quot;:&amp;quot;&lt;&lt;requirement&gt;&gt;&amp;quot;,&amp;quot;m&amp;quot;:[{&amp;quot;s&amp;quot;:0,&amp;quot;n&amp;quot;:&amp;quot;b&amp;quot;,&amp;quot;v&amp;quot;:true,&amp;quot;e&amp;quot;:15},{&amp;quot;s&amp;quot;:0,&amp;quot;n&amp;quot;:&amp;quot;f&amp;quot;,&amp;quot;v&amp;quot;:&amp;quot;Gentium Basic&amp;quot;,&amp;quot;e&amp;quot;:15},{&amp;quot;s&amp;quot;:0,&amp;quot;n&amp;quot;:&amp;quot;fc&amp;quot;,&amp;quot;v&amp;quot;:&amp;quot;Bold&amp;quot;,&amp;quot;e&amp;quot;:15},{&amp;quot;s&amp;quot;:0,&amp;quot;n&amp;quot;:&amp;quot;fid&amp;quot;,&amp;quot;v&amp;quot;:653,&amp;quot;e&amp;quot;:15},{&amp;quot;s&amp;quot;:0,&amp;quot;n&amp;quot;:&amp;quot;fsp&amp;quot;,&amp;quot;v&amp;quot;:&amp;quot;ss_presetShapeStyle1_textStyle&amp;quot;,&amp;quot;e&amp;quot;:15},{&amp;quot;s&amp;quot;:0,&amp;quot;n&amp;quot;:&amp;quot;s&amp;quot;,&amp;quot;v&amp;quot;:8.88888888888889,&amp;quot;e&amp;quot;:15}]}&quot; data-lucid-type=&quot;application/vnd.lucid.text&quot;&gt;&lt;span style=&quot;font-weight: bold;&quot;&gt;&amp;lt;&amp;lt;requirement&amp;gt;&amp;gt;&lt;/span&gt;&lt;/span&gt;" id="aKO-nOTtExuXH8D4YMzO-80">
          <mxCell style="text;whiteSpace=wrap;html=1;fontFamily=Georgia;verticalAlign=middle;align=center;fontSize=5;" vertex="1" parent="WIyWlLk6GJQsqaUBKTNV-1">
            <mxGeometry x="347" y="159.5" width="60" as="geometry" />
          </mxCell>
        </UserObject>
        <UserObject label="&lt;b&gt;calendrier&lt;/b&gt;" id="aKO-nOTtExuXH8D4YMzO-81">
          <mxCell style="text;whiteSpace=wrap;html=1;fontFamily=Georgia;verticalAlign=middle;align=center;fontSize=5;" vertex="1" parent="WIyWlLk6GJQsqaUBKTNV-1">
            <mxGeometry x="317" y="166.5" width="120" as="geometry" />
          </mxCell>
        </UserObject>
        <mxCell id="aKO-nOTtExuXH8D4YMzO-82" value="" style="endArrow=none;html=1;rounded=0;exitX=0;exitY=0.25;exitDx=0;exitDy=0;entryX=1;entryY=0.25;entryDx=0;entryDy=0;" edge="1" parent="WIyWlLk6GJQsqaUBKTNV-1">
          <mxGeometry width="50" height="50" relative="1" as="geometry">
            <mxPoint x="317" y="176.5" as="sourcePoint" />
            <mxPoint x="437" y="176.5" as="targetPoint" />
          </mxGeometry>
        </mxCell>
        <UserObject label="&lt;div&gt;&lt;b&gt;&lt;font style=&quot;font-size: 4px;&quot;&gt;id=&quot;1.4.3&quot;&lt;/font&gt;&lt;/b&gt;&lt;/div&gt;&lt;b&gt;&lt;font style=&quot;font-size: 4px;&quot;&gt;Text=&quot;lapplication doit Générer automatiquement les calendriers et les matchs grâce à un algorithme d’arbitrage.&quot;&lt;/font&gt;&lt;/b&gt;" id="aKO-nOTtExuXH8D4YMzO-83">
          <mxCell style="text;whiteSpace=wrap;html=1;fontFamily=Georgia;verticalAlign=middle;align=left;fontSize=5;" vertex="1" parent="WIyWlLk6GJQsqaUBKTNV-1">
            <mxGeometry x="317" y="195.5" width="120" as="geometry" />
          </mxCell>
        </UserObject>
        <mxCell id="aKO-nOTtExuXH8D4YMzO-84" value="" style="endArrow=none;html=1;rounded=0;exitX=0;exitY=0.25;exitDx=0;exitDy=0;entryX=1;entryY=0.25;entryDx=0;entryDy=0;" edge="1" parent="WIyWlLk6GJQsqaUBKTNV-1">
          <mxGeometry width="50" height="50" relative="1" as="geometry">
            <mxPoint x="112" y="318" as="sourcePoint" />
            <mxPoint x="232" y="318" as="targetPoint" />
          </mxGeometry>
        </mxCell>
        <mxCell id="aKO-nOTtExuXH8D4YMzO-85" value="" style="rounded=1;whiteSpace=wrap;html=1;arcSize=3;strokeColor=default;fillColor=#FFF58E;" vertex="1" parent="WIyWlLk6GJQsqaUBKTNV-1">
          <mxGeometry x="112" y="300" width="120" height="60" as="geometry" />
        </mxCell>
        <UserObject label="&lt;span data-lucid-content=&quot;{&amp;quot;t&amp;quot;:&amp;quot;&lt;&lt;requirement&gt;&gt;&amp;quot;,&amp;quot;m&amp;quot;:[{&amp;quot;s&amp;quot;:0,&amp;quot;n&amp;quot;:&amp;quot;b&amp;quot;,&amp;quot;v&amp;quot;:true,&amp;quot;e&amp;quot;:15},{&amp;quot;s&amp;quot;:0,&amp;quot;n&amp;quot;:&amp;quot;f&amp;quot;,&amp;quot;v&amp;quot;:&amp;quot;Gentium Basic&amp;quot;,&amp;quot;e&amp;quot;:15},{&amp;quot;s&amp;quot;:0,&amp;quot;n&amp;quot;:&amp;quot;fc&amp;quot;,&amp;quot;v&amp;quot;:&amp;quot;Bold&amp;quot;,&amp;quot;e&amp;quot;:15},{&amp;quot;s&amp;quot;:0,&amp;quot;n&amp;quot;:&amp;quot;fid&amp;quot;,&amp;quot;v&amp;quot;:653,&amp;quot;e&amp;quot;:15},{&amp;quot;s&amp;quot;:0,&amp;quot;n&amp;quot;:&amp;quot;fsp&amp;quot;,&amp;quot;v&amp;quot;:&amp;quot;ss_presetShapeStyle1_textStyle&amp;quot;,&amp;quot;e&amp;quot;:15},{&amp;quot;s&amp;quot;:0,&amp;quot;n&amp;quot;:&amp;quot;s&amp;quot;,&amp;quot;v&amp;quot;:8.88888888888889,&amp;quot;e&amp;quot;:15}]}&quot; data-lucid-type=&quot;application/vnd.lucid.text&quot;&gt;&lt;span style=&quot;font-weight: bold;&quot;&gt;&amp;lt;&amp;lt;requirement&amp;gt;&amp;gt;&lt;/span&gt;&lt;/span&gt;" id="aKO-nOTtExuXH8D4YMzO-86">
          <mxCell style="text;whiteSpace=wrap;html=1;fontFamily=Georgia;verticalAlign=middle;align=center;fontSize=5;" vertex="1" parent="WIyWlLk6GJQsqaUBKTNV-1">
            <mxGeometry x="142" y="303" width="60" as="geometry" />
          </mxCell>
        </UserObject>
        <UserObject label="&lt;b&gt;affichage des scores&lt;/b&gt;" id="aKO-nOTtExuXH8D4YMzO-87">
          <mxCell style="text;whiteSpace=wrap;html=1;fontFamily=Georgia;verticalAlign=middle;align=center;fontSize=5;" vertex="1" parent="WIyWlLk6GJQsqaUBKTNV-1">
            <mxGeometry x="112" y="310" width="120" as="geometry" />
          </mxCell>
        </UserObject>
        <mxCell id="aKO-nOTtExuXH8D4YMzO-88" value="" style="endArrow=none;html=1;rounded=0;exitX=0;exitY=0.25;exitDx=0;exitDy=0;entryX=1;entryY=0.25;entryDx=0;entryDy=0;" edge="1" parent="WIyWlLk6GJQsqaUBKTNV-1">
          <mxGeometry width="50" height="50" relative="1" as="geometry">
            <mxPoint x="112" y="320" as="sourcePoint" />
            <mxPoint x="232" y="320" as="targetPoint" />
          </mxGeometry>
        </mxCell>
        <UserObject label="&lt;div style=&quot;overflow: auto; padding: 9.144px 13.716px; word-break: break-all; text-align: start; margin-top: 0px !important; margin-bottom: 0px !important;&quot;&gt;&lt;span style=&quot;text-wrap-mode: wrap;&quot;&gt;id=&quot;1.4.4&quot;&amp;nbsp; &amp;nbsp; &amp;nbsp; &amp;nbsp; &amp;nbsp; &amp;nbsp; &amp;nbsp; &amp;nbsp; &amp;nbsp; &amp;nbsp; &amp;nbsp; &amp;nbsp; &amp;nbsp; &amp;nbsp; &amp;nbsp; &amp;nbsp; &amp;nbsp; &amp;nbsp; &amp;nbsp; &amp;nbsp; &amp;nbsp; &amp;nbsp; &amp;nbsp; &amp;nbsp; &amp;nbsp; &amp;nbsp; &amp;nbsp; &amp;nbsp; &amp;nbsp; &amp;nbsp; &amp;nbsp; &amp;nbsp; &amp;nbsp; &amp;nbsp; &amp;nbsp; &amp;nbsp; &amp;nbsp; &amp;nbsp; &amp;nbsp;&lt;/span&gt; &amp;nbsp; &amp;nbsp; &amp;nbsp; &amp;nbsp; &amp;nbsp;T&lt;span style=&quot;background-color: transparent;&quot;&gt;ext=&quot;l&#39;application doit a&lt;/span&gt;&lt;span style=&quot;background-color: transparent; text-align: center;&quot;&gt;fficher en temps les scores et classemen&lt;/span&gt;&lt;span style=&quot;text-wrap-mode: wrap; background-color: transparent; color: light-dark(rgb(0, 0, 0), rgb(255, 255, 255)); text-align: center;&quot;&gt;ts des équipes.&quot;&lt;/span&gt;&lt;/div&gt;" id="aKO-nOTtExuXH8D4YMzO-89">
          <mxCell style="text;whiteSpace=wrap;html=1;fontFamily=Georgia;verticalAlign=middle;align=center;fontSize=4;fontColor=default;fontStyle=1" vertex="1" parent="WIyWlLk6GJQsqaUBKTNV-1">
            <mxGeometry x="102" y="340" width="140" as="geometry" />
          </mxCell>
        </UserObject>
        <mxCell id="aKO-nOTtExuXH8D4YMzO-94" value="" style="endArrow=none;html=1;rounded=0;exitX=0;exitY=0.25;exitDx=0;exitDy=0;entryX=1;entryY=0.25;entryDx=0;entryDy=0;" edge="1" parent="WIyWlLk6GJQsqaUBKTNV-1">
          <mxGeometry width="50" height="50" relative="1" as="geometry">
            <mxPoint x="-338" y="339" as="sourcePoint" />
            <mxPoint x="-218" y="339" as="targetPoint" />
          </mxGeometry>
        </mxCell>
        <mxCell id="aKO-nOTtExuXH8D4YMzO-95" value="" style="rounded=1;whiteSpace=wrap;html=1;arcSize=3;strokeColor=default;fillColor=#FFF58E;" vertex="1" parent="WIyWlLk6GJQsqaUBKTNV-1">
          <mxGeometry x="-338" y="321" width="120" height="60" as="geometry" />
        </mxCell>
        <UserObject label="&lt;span data-lucid-content=&quot;{&amp;quot;t&amp;quot;:&amp;quot;&lt;&lt;requirement&gt;&gt;&amp;quot;,&amp;quot;m&amp;quot;:[{&amp;quot;s&amp;quot;:0,&amp;quot;n&amp;quot;:&amp;quot;b&amp;quot;,&amp;quot;v&amp;quot;:true,&amp;quot;e&amp;quot;:15},{&amp;quot;s&amp;quot;:0,&amp;quot;n&amp;quot;:&amp;quot;f&amp;quot;,&amp;quot;v&amp;quot;:&amp;quot;Gentium Basic&amp;quot;,&amp;quot;e&amp;quot;:15},{&amp;quot;s&amp;quot;:0,&amp;quot;n&amp;quot;:&amp;quot;fc&amp;quot;,&amp;quot;v&amp;quot;:&amp;quot;Bold&amp;quot;,&amp;quot;e&amp;quot;:15},{&amp;quot;s&amp;quot;:0,&amp;quot;n&amp;quot;:&amp;quot;fid&amp;quot;,&amp;quot;v&amp;quot;:653,&amp;quot;e&amp;quot;:15},{&amp;quot;s&amp;quot;:0,&amp;quot;n&amp;quot;:&amp;quot;fsp&amp;quot;,&amp;quot;v&amp;quot;:&amp;quot;ss_presetShapeStyle1_textStyle&amp;quot;,&amp;quot;e&amp;quot;:15},{&amp;quot;s&amp;quot;:0,&amp;quot;n&amp;quot;:&amp;quot;s&amp;quot;,&amp;quot;v&amp;quot;:8.88888888888889,&amp;quot;e&amp;quot;:15}]}&quot; data-lucid-type=&quot;application/vnd.lucid.text&quot;&gt;&lt;span style=&quot;font-weight: bold;&quot;&gt;&amp;lt;&amp;lt;requirement&amp;gt;&amp;gt;&lt;/span&gt;&lt;/span&gt;" id="aKO-nOTtExuXH8D4YMzO-96">
          <mxCell style="text;whiteSpace=wrap;html=1;fontFamily=Georgia;verticalAlign=middle;align=center;fontSize=5;" vertex="1" parent="WIyWlLk6GJQsqaUBKTNV-1">
            <mxGeometry x="-308" y="324" width="60" as="geometry" />
          </mxCell>
        </UserObject>
        <UserObject label="&lt;font&gt;&lt;span data-lucid-content=&quot;{&amp;quot;t&amp;quot;:&amp;quot;Gestion des evenments  sportifs&amp;quot;,&amp;quot;m&amp;quot;:[{&amp;quot;s&amp;quot;:0,&amp;quot;n&amp;quot;:&amp;quot;fc&amp;quot;,&amp;quot;v&amp;quot;:&amp;quot;Bold&amp;quot;,&amp;quot;e&amp;quot;:31},{&amp;quot;s&amp;quot;:0,&amp;quot;n&amp;quot;:&amp;quot;fid&amp;quot;,&amp;quot;v&amp;quot;:653,&amp;quot;e&amp;quot;:31},{&amp;quot;s&amp;quot;:0,&amp;quot;n&amp;quot;:&amp;quot;fsp&amp;quot;,&amp;quot;v&amp;quot;:&amp;quot;ss_presetShapeStyle1_textStyle&amp;quot;,&amp;quot;e&amp;quot;:31},{&amp;quot;s&amp;quot;:0,&amp;quot;n&amp;quot;:&amp;quot;b&amp;quot;,&amp;quot;v&amp;quot;:true,&amp;quot;e&amp;quot;:31},{&amp;quot;s&amp;quot;:0,&amp;quot;n&amp;quot;:&amp;quot;f&amp;quot;,&amp;quot;v&amp;quot;:&amp;quot;Gentium Basic&amp;quot;,&amp;quot;e&amp;quot;:31},{&amp;quot;s&amp;quot;:0,&amp;quot;n&amp;quot;:&amp;quot;s&amp;quot;,&amp;quot;v&amp;quot;:8.88888888888889,&amp;quot;e&amp;quot;:31},{&amp;quot;s&amp;quot;:0,&amp;quot;n&amp;quot;:&amp;quot;c&amp;quot;,&amp;quot;v&amp;quot;:&amp;quot;#000000ff&amp;quot;,&amp;quot;e&amp;quot;:12},{&amp;quot;s&amp;quot;:22,&amp;quot;n&amp;quot;:&amp;quot;c&amp;quot;,&amp;quot;v&amp;quot;:&amp;quot;#000000ff&amp;quot;,&amp;quot;e&amp;quot;:31}]}&quot; data-lucid-type=&quot;application/vnd.lucid.text&quot;&gt;&lt;span style=&quot;font-weight: bold;&quot;&gt;Gestion des&amp;nbsp;&lt;/span&gt;&lt;/span&gt;&lt;span style=&quot;font-weight: 700; text-align: left;&quot;&gt;installations&amp;nbsp;&lt;/span&gt;&lt;/font&gt;" id="aKO-nOTtExuXH8D4YMzO-97">
          <mxCell style="text;whiteSpace=wrap;html=1;fontFamily=Georgia;verticalAlign=middle;align=center;fontSize=5;" vertex="1" parent="WIyWlLk6GJQsqaUBKTNV-1">
            <mxGeometry x="-338" y="333" width="120" as="geometry" />
          </mxCell>
        </UserObject>
        <mxCell id="aKO-nOTtExuXH8D4YMzO-98" value="" style="endArrow=none;html=1;rounded=0;exitX=0;exitY=0.25;exitDx=0;exitDy=0;entryX=1;entryY=0.25;entryDx=0;entryDy=0;" edge="1" parent="WIyWlLk6GJQsqaUBKTNV-1">
          <mxGeometry width="50" height="50" relative="1" as="geometry">
            <mxPoint x="-338" y="341" as="sourcePoint" />
            <mxPoint x="-218" y="341" as="targetPoint" />
          </mxGeometry>
        </mxCell>
        <mxCell id="aKO-nOTtExuXH8D4YMzO-99" value="&lt;div&gt;&lt;div&gt;&lt;div style=&quot;overflow: auto; padding: 9.144px 13.716px; text-wrap-mode: wrap; word-break: break-all; margin-top: 0px !important; margin-bottom: 0px !important;&quot;&gt;id=&quot;1.2.1&quot;&lt;br&gt;Text=&quot;l&#39;application doit Utiliser un code couleur pour représenter la disponibilité (vert = libre, rouge = réservé).&quot;&lt;/div&gt;&lt;/div&gt;&lt;/div&gt;" style="text;html=1;align=left;verticalAlign=middle;whiteSpace=wrap;rounded=0;textShadow=1;fontColor=default;fontSize=4;fontFamily=Georgia;fontStyle=1" vertex="1" parent="WIyWlLk6GJQsqaUBKTNV-1">
          <mxGeometry x="-348" y="348" width="130" height="20" as="geometry" />
        </mxCell>
        <mxCell id="aKO-nOTtExuXH8D4YMzO-100" value="" style="endArrow=classic;html=1;rounded=0;entryX=0.5;entryY=1;entryDx=0;entryDy=0;dashed=1;exitX=0.5;exitY=0;exitDx=0;exitDy=0;" edge="1" parent="WIyWlLk6GJQsqaUBKTNV-1" source="aKO-nOTtExuXH8D4YMzO-95" target="aKO-nOTtExuXH8D4YMzO-58">
          <mxGeometry width="50" height="50" relative="1" as="geometry">
            <mxPoint x="-438" y="250" as="sourcePoint" />
            <mxPoint x="-388" y="200" as="targetPoint" />
          </mxGeometry>
        </mxCell>
        <UserObject label="&lt;span data-lucid-content=&quot;{&amp;quot;t&amp;quot;:&amp;quot;&lt;&lt;requirement&gt;&gt;&amp;quot;,&amp;quot;m&amp;quot;:[{&amp;quot;s&amp;quot;:0,&amp;quot;n&amp;quot;:&amp;quot;b&amp;quot;,&amp;quot;v&amp;quot;:true,&amp;quot;e&amp;quot;:15},{&amp;quot;s&amp;quot;:0,&amp;quot;n&amp;quot;:&amp;quot;f&amp;quot;,&amp;quot;v&amp;quot;:&amp;quot;Gentium Basic&amp;quot;,&amp;quot;e&amp;quot;:15},{&amp;quot;s&amp;quot;:0,&amp;quot;n&amp;quot;:&amp;quot;fc&amp;quot;,&amp;quot;v&amp;quot;:&amp;quot;Bold&amp;quot;,&amp;quot;e&amp;quot;:15},{&amp;quot;s&amp;quot;:0,&amp;quot;n&amp;quot;:&amp;quot;fid&amp;quot;,&amp;quot;v&amp;quot;:653,&amp;quot;e&amp;quot;:15},{&amp;quot;s&amp;quot;:0,&amp;quot;n&amp;quot;:&amp;quot;fsp&amp;quot;,&amp;quot;v&amp;quot;:&amp;quot;ss_presetShapeStyle1_textStyle&amp;quot;,&amp;quot;e&amp;quot;:15},{&amp;quot;s&amp;quot;:0,&amp;quot;n&amp;quot;:&amp;quot;s&amp;quot;,&amp;quot;v&amp;quot;:8.88888888888889,&amp;quot;e&amp;quot;:15}]}&quot; data-lucid-type=&quot;application/vnd.lucid.text&quot;&gt;&lt;span style=&quot;font-weight: bold;&quot;&gt;&amp;lt;&amp;lt;refine&amp;gt;&amp;gt;&lt;/span&gt;&lt;/span&gt;" id="aKO-nOTtExuXH8D4YMzO-101">
          <mxCell style="text;whiteSpace=wrap;html=1;fontFamily=Georgia;verticalAlign=middle;align=center;fontSize=5;rotation=90;" vertex="1" parent="WIyWlLk6GJQsqaUBKTNV-1">
            <mxGeometry x="-303" y="297" width="60" height="2" as="geometry" />
          </mxCell>
        </UserObject>
        <mxCell id="aKO-nOTtExuXH8D4YMzO-103" value="" style="endArrow=circlePlus;html=1;rounded=0;exitX=0.5;exitY=0;exitDx=0;exitDy=0;entryX=0.169;entryY=1;entryDx=0;entryDy=0;endFill=0;entryPerimeter=0;" edge="1" parent="WIyWlLk6GJQsqaUBKTNV-1" source="aKO-nOTtExuXH8D4YMzO-85" target="aKO-nOTtExuXH8D4YMzO-31">
          <mxGeometry width="50" height="50" relative="1" as="geometry">
            <mxPoint x="211.75" y="310" as="sourcePoint" />
            <mxPoint x="211.88" y="270" as="targetPoint" />
          </mxGeometry>
        </mxCell>
        <mxCell id="aKO-nOTtExuXH8D4YMzO-104" value="" style="endArrow=circlePlus;html=1;rounded=0;exitX=0.5;exitY=0;exitDx=0;exitDy=0;entryX=0.916;entryY=0.996;entryDx=0;entryDy=0;endFill=0;entryPerimeter=0;" edge="1" parent="WIyWlLk6GJQsqaUBKTNV-1" source="aKO-nOTtExuXH8D4YMzO-67" target="aKO-nOTtExuXH8D4YMzO-31">
          <mxGeometry width="50" height="50" relative="1" as="geometry">
            <mxPoint x="182" y="310" as="sourcePoint" />
            <mxPoint x="182" y="282" as="targetPoint" />
            <Array as="points">
              <mxPoint x="302" y="290" />
              <mxPoint x="262" y="290" />
            </Array>
          </mxGeometry>
        </mxCell>
        <mxCell id="aKO-nOTtExuXH8D4YMzO-107" value="" style="endArrow=circlePlus;html=1;rounded=0;exitX=0;exitY=0.5;exitDx=0;exitDy=0;endFill=0;entryX=0.999;entryY=0.796;entryDx=0;entryDy=0;entryPerimeter=0;" edge="1" parent="WIyWlLk6GJQsqaUBKTNV-1" source="aKO-nOTtExuXH8D4YMzO-73" target="aKO-nOTtExuXH8D4YMzO-31">
          <mxGeometry width="50" height="50" relative="1" as="geometry">
            <mxPoint x="297" y="276" as="sourcePoint" />
            <mxPoint x="287" y="254" as="targetPoint" />
          </mxGeometry>
        </mxCell>
        <mxCell id="aKO-nOTtExuXH8D4YMzO-108" value="" style="endArrow=circlePlus;html=1;rounded=0;exitX=0;exitY=0.75;exitDx=0;exitDy=0;endFill=0;entryX=1;entryY=0.5;entryDx=0;entryDy=0;" edge="1" parent="WIyWlLk6GJQsqaUBKTNV-1" source="aKO-nOTtExuXH8D4YMzO-79" target="aKO-nOTtExuXH8D4YMzO-31">
          <mxGeometry width="50" height="50" relative="1" as="geometry">
            <mxPoint x="324.5" y="210" as="sourcePoint" />
            <mxPoint x="279.5" y="210" as="targetPoint" />
          </mxGeometry>
        </mxCell>
        <mxCell id="aKO-nOTtExuXH8D4YMzO-109" value="" style="endArrow=none;html=1;rounded=0;exitX=0;exitY=0.25;exitDx=0;exitDy=0;entryX=1;entryY=0.25;entryDx=0;entryDy=0;" edge="1" parent="WIyWlLk6GJQsqaUBKTNV-1">
          <mxGeometry width="50" height="50" relative="1" as="geometry">
            <mxPoint x="-18" y="317" as="sourcePoint" />
            <mxPoint x="102" y="317" as="targetPoint" />
          </mxGeometry>
        </mxCell>
        <mxCell id="aKO-nOTtExuXH8D4YMzO-110" value="" style="rounded=1;whiteSpace=wrap;html=1;arcSize=3;strokeColor=default;fillColor=#FFF58E;" vertex="1" parent="WIyWlLk6GJQsqaUBKTNV-1">
          <mxGeometry x="-18" y="299" width="120" height="60" as="geometry" />
        </mxCell>
        <UserObject label="&lt;span data-lucid-content=&quot;{&amp;quot;t&amp;quot;:&amp;quot;&lt;&lt;requirement&gt;&gt;&amp;quot;,&amp;quot;m&amp;quot;:[{&amp;quot;s&amp;quot;:0,&amp;quot;n&amp;quot;:&amp;quot;b&amp;quot;,&amp;quot;v&amp;quot;:true,&amp;quot;e&amp;quot;:15},{&amp;quot;s&amp;quot;:0,&amp;quot;n&amp;quot;:&amp;quot;f&amp;quot;,&amp;quot;v&amp;quot;:&amp;quot;Gentium Basic&amp;quot;,&amp;quot;e&amp;quot;:15},{&amp;quot;s&amp;quot;:0,&amp;quot;n&amp;quot;:&amp;quot;fc&amp;quot;,&amp;quot;v&amp;quot;:&amp;quot;Bold&amp;quot;,&amp;quot;e&amp;quot;:15},{&amp;quot;s&amp;quot;:0,&amp;quot;n&amp;quot;:&amp;quot;fid&amp;quot;,&amp;quot;v&amp;quot;:653,&amp;quot;e&amp;quot;:15},{&amp;quot;s&amp;quot;:0,&amp;quot;n&amp;quot;:&amp;quot;fsp&amp;quot;,&amp;quot;v&amp;quot;:&amp;quot;ss_presetShapeStyle1_textStyle&amp;quot;,&amp;quot;e&amp;quot;:15},{&amp;quot;s&amp;quot;:0,&amp;quot;n&amp;quot;:&amp;quot;s&amp;quot;,&amp;quot;v&amp;quot;:8.88888888888889,&amp;quot;e&amp;quot;:15}]}&quot; data-lucid-type=&quot;application/vnd.lucid.text&quot;&gt;&lt;span style=&quot;font-weight: bold;&quot;&gt;&amp;lt;&amp;lt;requirement&amp;gt;&amp;gt;&lt;/span&gt;&lt;/span&gt;" id="aKO-nOTtExuXH8D4YMzO-111">
          <mxCell style="text;whiteSpace=wrap;html=1;fontFamily=Georgia;verticalAlign=middle;align=center;fontSize=5;" vertex="1" parent="WIyWlLk6GJQsqaUBKTNV-1">
            <mxGeometry x="12" y="302" width="60" as="geometry" />
          </mxCell>
        </UserObject>
        <UserObject label="&lt;pre style=&quot;text-align: left; overflow: auto; padding: 9.144px 13.716px; text-wrap-mode: wrap; word-break: break-all; margin-top: 0px !important; margin-bottom: 0px !important;&quot;&gt;&lt;pre style=&quot;overflow: auto; padding: 9.144px 13.716px; word-break: break-all; margin-top: 0px !important; margin-bottom: 0px !important;&quot;&gt;&lt;font style=&quot;font-size: 5px;&quot; face=&quot;Georgia&quot;&gt;&lt;span style=&quot;text-wrap-mode: wrap;&quot;&gt;&lt;b style=&quot;&quot;&gt;Rapidité et simplicité &lt;/b&gt;&lt;/span&gt;&lt;/font&gt;&lt;/pre&gt;&lt;/pre&gt;" id="aKO-nOTtExuXH8D4YMzO-112">
          <mxCell style="text;whiteSpace=wrap;html=1;fontFamily=Georgia;verticalAlign=middle;align=center;fontSize=6;" vertex="1" parent="WIyWlLk6GJQsqaUBKTNV-1">
            <mxGeometry x="-18" y="311" width="120" as="geometry" />
          </mxCell>
        </UserObject>
        <mxCell id="aKO-nOTtExuXH8D4YMzO-113" value="" style="endArrow=none;html=1;rounded=0;exitX=0;exitY=0.25;exitDx=0;exitDy=0;entryX=1;entryY=0.25;entryDx=0;entryDy=0;" edge="1" parent="WIyWlLk6GJQsqaUBKTNV-1">
          <mxGeometry width="50" height="50" relative="1" as="geometry">
            <mxPoint x="-18" y="319" as="sourcePoint" />
            <mxPoint x="102" y="319" as="targetPoint" />
          </mxGeometry>
        </mxCell>
        <mxCell id="aKO-nOTtExuXH8D4YMzO-114" value="&lt;font face=&quot;Georgia&quot;&gt;&lt;span style=&quot;white-space-collapse: preserve;&quot;&gt;&lt;b&gt;&lt;br&gt;&lt;/b&gt;&lt;/span&gt;&lt;/font&gt;&lt;div&gt;&lt;pre style=&quot;overflow: auto; padding: 9.144px 13.716px; word-break: break-all; margin-top: 0px !important; margin-bottom: 0px !important;&quot;&gt;&lt;font face=&quot;Georgia&quot;&gt;&lt;span style=&quot;text-wrap-mode: wrap;&quot;&gt;&lt;b&gt;&lt;span&gt;&lt;br&gt;id=&quot;1.3.4&quot;&lt;br&gt;&lt;/span&gt;Text=&quot;Permettre une réservation rapide en un clic avec sélection de c&lt;/b&gt;&lt;/span&gt;&lt;/font&gt;&lt;span style=&quot;text-wrap-mode: wrap;&quot;&gt;réneau horaire.&quot;&lt;/span&gt;&lt;/pre&gt;&lt;div&gt;&lt;br style=&quot;font-family: Georgia;&quot;&gt;&lt;/div&gt;&lt;/div&gt;" style="text;html=1;align=left;verticalAlign=middle;whiteSpace=wrap;rounded=0;textShadow=1;fontColor=default;fontSize=4;" vertex="1" parent="WIyWlLk6GJQsqaUBKTNV-1">
          <mxGeometry x="-28" y="321" width="140" height="30" as="geometry" />
        </mxCell>
        <mxCell id="aKO-nOTtExuXH8D4YMzO-115" value="" style="endArrow=none;html=1;rounded=0;exitX=0;exitY=0.25;exitDx=0;exitDy=0;entryX=1;entryY=0.25;entryDx=0;entryDy=0;" edge="1" parent="WIyWlLk6GJQsqaUBKTNV-1">
          <mxGeometry width="50" height="50" relative="1" as="geometry">
            <mxPoint x="-198" y="320" as="sourcePoint" />
            <mxPoint x="-78" y="320" as="targetPoint" />
          </mxGeometry>
        </mxCell>
        <mxCell id="aKO-nOTtExuXH8D4YMzO-116" value="" style="rounded=1;whiteSpace=wrap;html=1;arcSize=3;strokeColor=default;fillColor=#FFF58E;" vertex="1" parent="WIyWlLk6GJQsqaUBKTNV-1">
          <mxGeometry x="-198" y="302" width="120" height="60" as="geometry" />
        </mxCell>
        <UserObject label="&lt;span data-lucid-content=&quot;{&amp;quot;t&amp;quot;:&amp;quot;&lt;&lt;requirement&gt;&gt;&amp;quot;,&amp;quot;m&amp;quot;:[{&amp;quot;s&amp;quot;:0,&amp;quot;n&amp;quot;:&amp;quot;b&amp;quot;,&amp;quot;v&amp;quot;:true,&amp;quot;e&amp;quot;:15},{&amp;quot;s&amp;quot;:0,&amp;quot;n&amp;quot;:&amp;quot;f&amp;quot;,&amp;quot;v&amp;quot;:&amp;quot;Gentium Basic&amp;quot;,&amp;quot;e&amp;quot;:15},{&amp;quot;s&amp;quot;:0,&amp;quot;n&amp;quot;:&amp;quot;fc&amp;quot;,&amp;quot;v&amp;quot;:&amp;quot;Bold&amp;quot;,&amp;quot;e&amp;quot;:15},{&amp;quot;s&amp;quot;:0,&amp;quot;n&amp;quot;:&amp;quot;fid&amp;quot;,&amp;quot;v&amp;quot;:653,&amp;quot;e&amp;quot;:15},{&amp;quot;s&amp;quot;:0,&amp;quot;n&amp;quot;:&amp;quot;fsp&amp;quot;,&amp;quot;v&amp;quot;:&amp;quot;ss_presetShapeStyle1_textStyle&amp;quot;,&amp;quot;e&amp;quot;:15},{&amp;quot;s&amp;quot;:0,&amp;quot;n&amp;quot;:&amp;quot;s&amp;quot;,&amp;quot;v&amp;quot;:8.88888888888889,&amp;quot;e&amp;quot;:15}]}&quot; data-lucid-type=&quot;application/vnd.lucid.text&quot;&gt;&lt;span style=&quot;font-weight: bold;&quot;&gt;&amp;lt;&amp;lt;requirement&amp;gt;&amp;gt;&lt;/span&gt;&lt;/span&gt;" id="aKO-nOTtExuXH8D4YMzO-117">
          <mxCell style="text;whiteSpace=wrap;html=1;fontFamily=Georgia;verticalAlign=middle;align=center;fontSize=5;" vertex="1" parent="WIyWlLk6GJQsqaUBKTNV-1">
            <mxGeometry x="-174" y="306" width="60" as="geometry" />
          </mxCell>
        </UserObject>
        <UserObject label="&lt;pre style=&quot;text-align: left; overflow: auto; padding: 9.144px 13.716px; text-wrap-mode: wrap; word-break: break-all; margin-top: 0px !important; margin-bottom: 0px !important;&quot;&gt;&lt;pre style=&quot;overflow: auto; padding: 9.144px 13.716px; word-break: break-all; margin-top: 0px !important; margin-bottom: 0px !important;&quot;&gt;&lt;font style=&quot;font-size: 5px;&quot; face=&quot;Georgia&quot;&gt;&lt;span style=&quot;text-wrap-mode: wrap;&quot;&gt;&lt;b style=&quot;&quot;&gt;annulation et modification &lt;/b&gt;&lt;/span&gt;&lt;/font&gt;&lt;/pre&gt;&lt;/pre&gt;" id="aKO-nOTtExuXH8D4YMzO-118">
          <mxCell style="text;whiteSpace=wrap;html=1;fontFamily=Georgia;verticalAlign=middle;align=center;fontSize=6;" vertex="1" parent="WIyWlLk6GJQsqaUBKTNV-1">
            <mxGeometry x="-209" y="313" width="140" as="geometry" />
          </mxCell>
        </UserObject>
        <mxCell id="aKO-nOTtExuXH8D4YMzO-119" value="" style="endArrow=none;html=1;rounded=0;exitX=0;exitY=0.25;exitDx=0;exitDy=0;entryX=1;entryY=0.25;entryDx=0;entryDy=0;" edge="1" parent="WIyWlLk6GJQsqaUBKTNV-1">
          <mxGeometry width="50" height="50" relative="1" as="geometry">
            <mxPoint x="-198" y="322" as="sourcePoint" />
            <mxPoint x="-78" y="322" as="targetPoint" />
          </mxGeometry>
        </mxCell>
        <mxCell id="aKO-nOTtExuXH8D4YMzO-120" value="&lt;font face=&quot;Georgia&quot;&gt;&lt;span style=&quot;white-space-collapse: preserve;&quot;&gt;&lt;b&gt;&lt;br&gt;&lt;/b&gt;&lt;/span&gt;&lt;/font&gt;&lt;div&gt;&lt;pre style=&quot;overflow: auto; padding: 9.144px 13.716px; word-break: break-all; margin-top: 0px !important; margin-bottom: 0px !important;&quot;&gt;&lt;font face=&quot;Georgia&quot;&gt;&lt;span style=&quot;text-wrap-mode: wrap;&quot;&gt;&lt;b&gt;&lt;span&gt;&lt;br&gt;id=&quot;1.3.2&quot;&lt;br&gt;&lt;/span&gt;Text=&quot;Permettre l’annulation ou la modification d&lt;/b&gt;&lt;/span&gt;&lt;/font&gt;’une réservation&quot;&lt;/pre&gt;&lt;div&gt;&lt;br style=&quot;font-family: Georgia;&quot;&gt;&lt;/div&gt;&lt;/div&gt;" style="text;html=1;align=left;verticalAlign=middle;whiteSpace=wrap;rounded=0;textShadow=1;fontColor=default;fontSize=4;" vertex="1" parent="WIyWlLk6GJQsqaUBKTNV-1">
          <mxGeometry x="-208" y="324" width="140" height="30" as="geometry" />
        </mxCell>
        <mxCell id="aKO-nOTtExuXH8D4YMzO-121" value="" style="endArrow=none;html=1;rounded=0;exitX=0;exitY=0.25;exitDx=0;exitDy=0;entryX=1;entryY=0.25;entryDx=0;entryDy=0;" edge="1" parent="WIyWlLk6GJQsqaUBKTNV-1">
          <mxGeometry width="50" height="50" relative="1" as="geometry">
            <mxPoint x="-198" y="248" as="sourcePoint" />
            <mxPoint x="-78" y="248" as="targetPoint" />
          </mxGeometry>
        </mxCell>
        <mxCell id="aKO-nOTtExuXH8D4YMzO-122" value="" style="rounded=1;whiteSpace=wrap;html=1;arcSize=3;strokeColor=default;fillColor=#FFF58E;" vertex="1" parent="WIyWlLk6GJQsqaUBKTNV-1">
          <mxGeometry x="-198" y="230" width="120" height="60" as="geometry" />
        </mxCell>
        <UserObject label="&lt;span data-lucid-content=&quot;{&amp;quot;t&amp;quot;:&amp;quot;&lt;&lt;requirement&gt;&gt;&amp;quot;,&amp;quot;m&amp;quot;:[{&amp;quot;s&amp;quot;:0,&amp;quot;n&amp;quot;:&amp;quot;b&amp;quot;,&amp;quot;v&amp;quot;:true,&amp;quot;e&amp;quot;:15},{&amp;quot;s&amp;quot;:0,&amp;quot;n&amp;quot;:&amp;quot;f&amp;quot;,&amp;quot;v&amp;quot;:&amp;quot;Gentium Basic&amp;quot;,&amp;quot;e&amp;quot;:15},{&amp;quot;s&amp;quot;:0,&amp;quot;n&amp;quot;:&amp;quot;fc&amp;quot;,&amp;quot;v&amp;quot;:&amp;quot;Bold&amp;quot;,&amp;quot;e&amp;quot;:15},{&amp;quot;s&amp;quot;:0,&amp;quot;n&amp;quot;:&amp;quot;fid&amp;quot;,&amp;quot;v&amp;quot;:653,&amp;quot;e&amp;quot;:15},{&amp;quot;s&amp;quot;:0,&amp;quot;n&amp;quot;:&amp;quot;fsp&amp;quot;,&amp;quot;v&amp;quot;:&amp;quot;ss_presetShapeStyle1_textStyle&amp;quot;,&amp;quot;e&amp;quot;:15},{&amp;quot;s&amp;quot;:0,&amp;quot;n&amp;quot;:&amp;quot;s&amp;quot;,&amp;quot;v&amp;quot;:8.88888888888889,&amp;quot;e&amp;quot;:15}]}&quot; data-lucid-type=&quot;application/vnd.lucid.text&quot;&gt;&lt;span style=&quot;font-weight: bold;&quot;&gt;&amp;lt;&amp;lt;requirement&amp;gt;&amp;gt;&lt;/span&gt;&lt;/span&gt;" id="aKO-nOTtExuXH8D4YMzO-123">
          <mxCell style="text;whiteSpace=wrap;html=1;fontFamily=Georgia;verticalAlign=middle;align=center;fontSize=5;" vertex="1" parent="WIyWlLk6GJQsqaUBKTNV-1">
            <mxGeometry x="-168" y="233" width="60" as="geometry" />
          </mxCell>
        </UserObject>
        <UserObject label="&lt;pre style=&quot;text-align: left; overflow: auto; padding: 9.144px 13.716px; text-wrap-mode: wrap; word-break: break-all; margin-top: 0px !important; margin-bottom: 0px !important;&quot;&gt;&lt;pre style=&quot;overflow: auto; padding: 9.144px 13.716px; word-break: break-all; margin-top: 0px !important; margin-bottom: 0px !important;&quot;&gt;&lt;font style=&quot;font-size: 5px;&quot; face=&quot;Georgia&quot;&gt;&lt;span style=&quot;text-wrap-mode: wrap;&quot;&gt;&lt;b style=&quot;&quot;&gt;Synchronisation &lt;/b&gt;&lt;/span&gt;&lt;/font&gt;&lt;/pre&gt;&lt;/pre&gt;" id="aKO-nOTtExuXH8D4YMzO-124">
          <mxCell style="text;whiteSpace=wrap;html=1;fontFamily=Georgia;verticalAlign=middle;align=center;fontSize=6;" vertex="1" parent="WIyWlLk6GJQsqaUBKTNV-1">
            <mxGeometry x="-198" y="242" width="120" as="geometry" />
          </mxCell>
        </UserObject>
        <mxCell id="aKO-nOTtExuXH8D4YMzO-125" value="" style="endArrow=none;html=1;rounded=0;exitX=0;exitY=0.25;exitDx=0;exitDy=0;entryX=1;entryY=0.25;entryDx=0;entryDy=0;" edge="1" parent="WIyWlLk6GJQsqaUBKTNV-1">
          <mxGeometry width="50" height="50" relative="1" as="geometry">
            <mxPoint x="-198" y="250" as="sourcePoint" />
            <mxPoint x="-78" y="250" as="targetPoint" />
          </mxGeometry>
        </mxCell>
        <mxCell id="aKO-nOTtExuXH8D4YMzO-126" value="&lt;font face=&quot;Georgia&quot;&gt;&lt;span style=&quot;white-space-collapse: preserve;&quot;&gt;&lt;b&gt;&lt;br&gt;&lt;/b&gt;&lt;/span&gt;&lt;/font&gt;&lt;div&gt;&lt;pre style=&quot;overflow: auto; padding: 9.144px 13.716px; word-break: break-all; margin-top: 0px !important; margin-bottom: 0px !important;&quot;&gt;&lt;font face=&quot;Georgia&quot;&gt;&lt;span style=&quot;text-wrap-mode: wrap;&quot;&gt;&lt;b&gt;&lt;span&gt;&lt;br&gt;id=&quot;1.3.1&quot;&lt;br&gt;&lt;/span&gt;Text=&quot;Synchroniser automatiquement les réservations avec le calendrier de&lt;/b&gt;&lt;/span&gt;&lt;/font&gt; l’utilisateur.&quot;&lt;/pre&gt;&lt;div&gt;&lt;br style=&quot;font-family: Georgia;&quot;&gt;&lt;/div&gt;&lt;/div&gt;" style="text;html=1;align=left;verticalAlign=middle;whiteSpace=wrap;rounded=0;textShadow=1;fontColor=default;fontSize=4;" vertex="1" parent="WIyWlLk6GJQsqaUBKTNV-1">
          <mxGeometry x="-208" y="252" width="140" height="30" as="geometry" />
        </mxCell>
        <mxCell id="aKO-nOTtExuXH8D4YMzO-127" value="" style="endArrow=none;html=1;rounded=0;exitX=0;exitY=0.25;exitDx=0;exitDy=0;entryX=1;entryY=0.25;entryDx=0;entryDy=0;" edge="1" parent="WIyWlLk6GJQsqaUBKTNV-1">
          <mxGeometry width="50" height="50" relative="1" as="geometry">
            <mxPoint x="-198" y="390" as="sourcePoint" />
            <mxPoint x="-78" y="390" as="targetPoint" />
          </mxGeometry>
        </mxCell>
        <mxCell id="aKO-nOTtExuXH8D4YMzO-128" value="" style="rounded=1;whiteSpace=wrap;html=1;arcSize=3;strokeColor=default;fillColor=#FFF58E;" vertex="1" parent="WIyWlLk6GJQsqaUBKTNV-1">
          <mxGeometry x="-198" y="372" width="120" height="60" as="geometry" />
        </mxCell>
        <UserObject label="&lt;span data-lucid-content=&quot;{&amp;quot;t&amp;quot;:&amp;quot;&lt;&lt;requirement&gt;&gt;&amp;quot;,&amp;quot;m&amp;quot;:[{&amp;quot;s&amp;quot;:0,&amp;quot;n&amp;quot;:&amp;quot;b&amp;quot;,&amp;quot;v&amp;quot;:true,&amp;quot;e&amp;quot;:15},{&amp;quot;s&amp;quot;:0,&amp;quot;n&amp;quot;:&amp;quot;f&amp;quot;,&amp;quot;v&amp;quot;:&amp;quot;Gentium Basic&amp;quot;,&amp;quot;e&amp;quot;:15},{&amp;quot;s&amp;quot;:0,&amp;quot;n&amp;quot;:&amp;quot;fc&amp;quot;,&amp;quot;v&amp;quot;:&amp;quot;Bold&amp;quot;,&amp;quot;e&amp;quot;:15},{&amp;quot;s&amp;quot;:0,&amp;quot;n&amp;quot;:&amp;quot;fid&amp;quot;,&amp;quot;v&amp;quot;:653,&amp;quot;e&amp;quot;:15},{&amp;quot;s&amp;quot;:0,&amp;quot;n&amp;quot;:&amp;quot;fsp&amp;quot;,&amp;quot;v&amp;quot;:&amp;quot;ss_presetShapeStyle1_textStyle&amp;quot;,&amp;quot;e&amp;quot;:15},{&amp;quot;s&amp;quot;:0,&amp;quot;n&amp;quot;:&amp;quot;s&amp;quot;,&amp;quot;v&amp;quot;:8.88888888888889,&amp;quot;e&amp;quot;:15}]}&quot; data-lucid-type=&quot;application/vnd.lucid.text&quot;&gt;&lt;span style=&quot;font-weight: bold;&quot;&gt;&amp;lt;&amp;lt;requirement&amp;gt;&amp;gt;&lt;/span&gt;&lt;/span&gt;" id="aKO-nOTtExuXH8D4YMzO-129">
          <mxCell style="text;whiteSpace=wrap;html=1;fontFamily=Georgia;verticalAlign=middle;align=center;fontSize=5;" vertex="1" parent="WIyWlLk6GJQsqaUBKTNV-1">
            <mxGeometry x="-174" y="376" width="60" as="geometry" />
          </mxCell>
        </UserObject>
        <UserObject label="&lt;pre style=&quot;text-align: left; overflow: auto; padding: 9.144px 13.716px; text-wrap-mode: wrap; word-break: break-all; margin-top: 0px !important; margin-bottom: 0px !important;&quot;&gt;&lt;pre style=&quot;overflow: auto; padding: 9.144px 13.716px; word-break: break-all; margin-top: 0px !important; margin-bottom: 0px !important;&quot;&gt;&lt;font style=&quot;font-size: 5px;&quot; face=&quot;Georgia&quot;&gt;&lt;span style=&quot;text-wrap-mode: wrap;&quot;&gt;&lt;b style=&quot;&quot;&gt;confirmation par email&lt;/b&gt;&lt;/span&gt;&lt;/font&gt;&lt;/pre&gt;&lt;/pre&gt;" id="aKO-nOTtExuXH8D4YMzO-130">
          <mxCell style="text;whiteSpace=wrap;html=1;fontFamily=Georgia;verticalAlign=middle;align=center;fontSize=6;" vertex="1" parent="WIyWlLk6GJQsqaUBKTNV-1">
            <mxGeometry x="-198" y="384" width="120" as="geometry" />
          </mxCell>
        </UserObject>
        <mxCell id="aKO-nOTtExuXH8D4YMzO-131" value="" style="endArrow=none;html=1;rounded=0;exitX=0;exitY=0.25;exitDx=0;exitDy=0;entryX=1;entryY=0.25;entryDx=0;entryDy=0;" edge="1" parent="WIyWlLk6GJQsqaUBKTNV-1">
          <mxGeometry width="50" height="50" relative="1" as="geometry">
            <mxPoint x="-198" y="392" as="sourcePoint" />
            <mxPoint x="-78" y="392" as="targetPoint" />
          </mxGeometry>
        </mxCell>
        <mxCell id="aKO-nOTtExuXH8D4YMzO-132" value="&lt;font face=&quot;Georgia&quot;&gt;&lt;span style=&quot;white-space-collapse: preserve;&quot;&gt;&lt;b&gt;&lt;br&gt;&lt;/b&gt;&lt;/span&gt;&lt;/font&gt;&lt;div&gt;&lt;pre style=&quot;overflow: auto; padding: 9.144px 13.716px; word-break: break-all; margin-top: 0px !important; margin-bottom: 0px !important;&quot;&gt;&lt;font face=&quot;Georgia&quot;&gt;&lt;span style=&quot;text-wrap-mode: wrap;&quot;&gt;&lt;b&gt;&lt;span&gt;&lt;br&gt;id=&quot;1.3.3&quot;&lt;br&gt;&lt;/span&gt;Text=&quot;Envoyer une confirmation par email contenant un QR code d’accès après chaq&lt;/b&gt;&lt;/span&gt;&lt;/font&gt;ue réservation.&quot;&lt;/pre&gt;&lt;div&gt;&lt;br style=&quot;font-family: Georgia;&quot;&gt;&lt;/div&gt;&lt;/div&gt;" style="text;html=1;align=left;verticalAlign=middle;whiteSpace=wrap;rounded=0;textShadow=1;fontColor=default;fontSize=4;" vertex="1" parent="WIyWlLk6GJQsqaUBKTNV-1">
          <mxGeometry x="-208" y="394" width="140" height="30" as="geometry" />
        </mxCell>
        <mxCell id="aKO-nOTtExuXH8D4YMzO-133" value="" style="endArrow=circlePlus;html=1;rounded=0;entryX=0.5;entryY=1;entryDx=0;entryDy=0;endFill=0;exitX=0.524;exitY=-0.022;exitDx=0;exitDy=0;exitPerimeter=0;" edge="1" parent="WIyWlLk6GJQsqaUBKTNV-1" source="aKO-nOTtExuXH8D4YMzO-110" target="aKO-nOTtExuXH8D4YMzO-37">
          <mxGeometry width="50" height="50" relative="1" as="geometry">
            <mxPoint x="44" y="300" as="sourcePoint" />
            <mxPoint x="32.129999999999995" y="290" as="targetPoint" />
          </mxGeometry>
        </mxCell>
        <mxCell id="aKO-nOTtExuXH8D4YMzO-134" value="" style="endArrow=circlePlus;html=1;rounded=0;endFill=0;entryX=0.002;entryY=0.93;entryDx=0;entryDy=0;exitX=1;exitY=0.25;exitDx=0;exitDy=0;entryPerimeter=0;" edge="1" parent="WIyWlLk6GJQsqaUBKTNV-1" source="aKO-nOTtExuXH8D4YMzO-128" target="aKO-nOTtExuXH8D4YMzO-37">
          <mxGeometry width="50" height="50" relative="1" as="geometry">
            <mxPoint x="55" y="308" as="sourcePoint" />
            <mxPoint x="-18" y="280" as="targetPoint" />
            <Array as="points">
              <mxPoint x="-38" y="387" />
              <mxPoint x="-38" y="266" />
            </Array>
          </mxGeometry>
        </mxCell>
        <mxCell id="aKO-nOTtExuXH8D4YMzO-135" value="" style="endArrow=circlePlus;html=1;rounded=0;endFill=0;entryX=0;entryY=0.5;entryDx=0;entryDy=0;" edge="1" parent="WIyWlLk6GJQsqaUBKTNV-1" target="aKO-nOTtExuXH8D4YMzO-37">
          <mxGeometry width="50" height="50" relative="1" as="geometry">
            <mxPoint x="-78" y="342" as="sourcePoint" />
            <mxPoint x="-16" y="210" as="targetPoint" />
            <Array as="points">
              <mxPoint x="-48" y="342" />
              <mxPoint x="-48" y="270" />
              <mxPoint x="-48" y="240" />
            </Array>
          </mxGeometry>
        </mxCell>
        <mxCell id="aKO-nOTtExuXH8D4YMzO-136" value="" style="endArrow=circlePlus;html=1;rounded=0;endFill=0;entryX=-0.002;entryY=0.146;entryDx=0;entryDy=0;entryPerimeter=0;" edge="1" parent="WIyWlLk6GJQsqaUBKTNV-1" target="aKO-nOTtExuXH8D4YMzO-37">
          <mxGeometry width="50" height="50" relative="1" as="geometry">
            <mxPoint x="-78" y="260" as="sourcePoint" />
            <mxPoint x="-6" y="250" as="targetPoint" />
            <Array as="points">
              <mxPoint x="-78" y="260" />
              <mxPoint x="-58" y="260" />
              <mxPoint x="-58" y="220" />
            </Array>
          </mxGeometry>
        </mxCell>
        <mxCell id="aKO-nOTtExuXH8D4YMzO-139" value="" style="endArrow=none;html=1;rounded=0;exitX=0;exitY=0.25;exitDx=0;exitDy=0;entryX=1;entryY=0.25;entryDx=0;entryDy=0;" edge="1" parent="WIyWlLk6GJQsqaUBKTNV-1">
          <mxGeometry width="50" height="50" relative="1" as="geometry">
            <mxPoint x="-468" y="225.5" as="sourcePoint" />
            <mxPoint x="-348" y="225.5" as="targetPoint" />
          </mxGeometry>
        </mxCell>
        <mxCell id="aKO-nOTtExuXH8D4YMzO-140" value="" style="rounded=1;whiteSpace=wrap;html=1;arcSize=3;strokeColor=default;fillColor=#FFF58E;" vertex="1" parent="WIyWlLk6GJQsqaUBKTNV-1">
          <mxGeometry x="-468" y="207.5" width="120" height="60" as="geometry" />
        </mxCell>
        <UserObject label="&lt;span data-lucid-content=&quot;{&amp;quot;t&amp;quot;:&amp;quot;&lt;&lt;requirement&gt;&gt;&amp;quot;,&amp;quot;m&amp;quot;:[{&amp;quot;s&amp;quot;:0,&amp;quot;n&amp;quot;:&amp;quot;b&amp;quot;,&amp;quot;v&amp;quot;:true,&amp;quot;e&amp;quot;:15},{&amp;quot;s&amp;quot;:0,&amp;quot;n&amp;quot;:&amp;quot;f&amp;quot;,&amp;quot;v&amp;quot;:&amp;quot;Gentium Basic&amp;quot;,&amp;quot;e&amp;quot;:15},{&amp;quot;s&amp;quot;:0,&amp;quot;n&amp;quot;:&amp;quot;fc&amp;quot;,&amp;quot;v&amp;quot;:&amp;quot;Bold&amp;quot;,&amp;quot;e&amp;quot;:15},{&amp;quot;s&amp;quot;:0,&amp;quot;n&amp;quot;:&amp;quot;fid&amp;quot;,&amp;quot;v&amp;quot;:653,&amp;quot;e&amp;quot;:15},{&amp;quot;s&amp;quot;:0,&amp;quot;n&amp;quot;:&amp;quot;fsp&amp;quot;,&amp;quot;v&amp;quot;:&amp;quot;ss_presetShapeStyle1_textStyle&amp;quot;,&amp;quot;e&amp;quot;:15},{&amp;quot;s&amp;quot;:0,&amp;quot;n&amp;quot;:&amp;quot;s&amp;quot;,&amp;quot;v&amp;quot;:8.88888888888889,&amp;quot;e&amp;quot;:15}]}&quot; data-lucid-type=&quot;application/vnd.lucid.text&quot;&gt;&lt;span style=&quot;font-weight: bold;&quot;&gt;&amp;lt;&amp;lt;requirement&amp;gt;&amp;gt;&lt;/span&gt;&lt;/span&gt;" id="aKO-nOTtExuXH8D4YMzO-141">
          <mxCell style="text;whiteSpace=wrap;html=1;fontFamily=Georgia;verticalAlign=middle;align=center;fontSize=5;" vertex="1" parent="WIyWlLk6GJQsqaUBKTNV-1">
            <mxGeometry x="-438" y="210.5" width="60" as="geometry" />
          </mxCell>
        </UserObject>
        <UserObject label="&lt;span style=&quot;font-size: 4px; font-weight: 700; text-align: left;&quot;&gt;profils&amp;nbsp;&lt;/span&gt;" id="aKO-nOTtExuXH8D4YMzO-142">
          <mxCell style="text;whiteSpace=wrap;html=1;fontFamily=Georgia;verticalAlign=middle;align=center;fontSize=5;" vertex="1" parent="WIyWlLk6GJQsqaUBKTNV-1">
            <mxGeometry x="-468" y="219.5" width="120" as="geometry" />
          </mxCell>
        </UserObject>
        <mxCell id="aKO-nOTtExuXH8D4YMzO-143" value="" style="endArrow=none;html=1;rounded=0;exitX=0;exitY=0.25;exitDx=0;exitDy=0;entryX=1;entryY=0.25;entryDx=0;entryDy=0;" edge="1" parent="WIyWlLk6GJQsqaUBKTNV-1">
          <mxGeometry width="50" height="50" relative="1" as="geometry">
            <mxPoint x="-468" y="227.5" as="sourcePoint" />
            <mxPoint x="-348" y="227.5" as="targetPoint" />
          </mxGeometry>
        </mxCell>
        <mxCell id="aKO-nOTtExuXH8D4YMzO-144" value="&lt;div&gt;&lt;div&gt;&lt;div style=&quot;overflow: auto; padding: 9.144px 13.716px; text-wrap-mode: wrap; word-break: break-all; margin-top: 0px !important; margin-bottom: 0px !important;&quot;&gt;id=&quot;1.5&quot;&lt;br&gt;Text=&quot;L&#39;application doit Permettre la création de deux types de profils : étudiant et administrateur.&lt;/div&gt;&lt;/div&gt;&lt;/div&gt;" style="text;html=1;align=left;verticalAlign=middle;whiteSpace=wrap;rounded=0;textShadow=1;fontColor=default;fontSize=4;fontFamily=Georgia;fontStyle=1" vertex="1" parent="WIyWlLk6GJQsqaUBKTNV-1">
          <mxGeometry x="-480" y="235" width="132" height="20" as="geometry" />
        </mxCell>
        <mxCell id="aKO-nOTtExuXH8D4YMzO-145" value="" style="endArrow=circlePlus;html=1;rounded=0;exitX=0.412;exitY=0.012;exitDx=0;exitDy=0;entryX=0;entryY=0.75;entryDx=0;entryDy=0;endFill=0;exitPerimeter=0;" edge="1" parent="WIyWlLk6GJQsqaUBKTNV-1" source="aKO-nOTtExuXH8D4YMzO-140">
          <mxGeometry width="50" height="50" relative="1" as="geometry">
            <mxPoint x="-418" y="180.75" as="sourcePoint" />
            <mxPoint x="-16" y="138.25" as="targetPoint" />
            <Array as="points">
              <mxPoint x="-418" y="143.25" />
            </Array>
          </mxGeometry>
        </mxCell>
        <mxCell id="aKO-nOTtExuXH8D4YMzO-151" value="" style="endArrow=none;html=1;rounded=0;exitX=0;exitY=0.25;exitDx=0;exitDy=0;entryX=1;entryY=0.25;entryDx=0;entryDy=0;" edge="1" parent="WIyWlLk6GJQsqaUBKTNV-1">
          <mxGeometry width="50" height="50" relative="1" as="geometry">
            <mxPoint x="-463" y="339" as="sourcePoint" />
            <mxPoint x="-343" y="339" as="targetPoint" />
          </mxGeometry>
        </mxCell>
        <mxCell id="aKO-nOTtExuXH8D4YMzO-152" value="" style="rounded=1;whiteSpace=wrap;html=1;arcSize=3;strokeColor=default;fillColor=#FFF58E;" vertex="1" parent="WIyWlLk6GJQsqaUBKTNV-1">
          <mxGeometry x="-463" y="321" width="120" height="60" as="geometry" />
        </mxCell>
        <UserObject label="&lt;span data-lucid-content=&quot;{&amp;quot;t&amp;quot;:&amp;quot;&lt;&lt;requirement&gt;&gt;&amp;quot;,&amp;quot;m&amp;quot;:[{&amp;quot;s&amp;quot;:0,&amp;quot;n&amp;quot;:&amp;quot;b&amp;quot;,&amp;quot;v&amp;quot;:true,&amp;quot;e&amp;quot;:15},{&amp;quot;s&amp;quot;:0,&amp;quot;n&amp;quot;:&amp;quot;f&amp;quot;,&amp;quot;v&amp;quot;:&amp;quot;Gentium Basic&amp;quot;,&amp;quot;e&amp;quot;:15},{&amp;quot;s&amp;quot;:0,&amp;quot;n&amp;quot;:&amp;quot;fc&amp;quot;,&amp;quot;v&amp;quot;:&amp;quot;Bold&amp;quot;,&amp;quot;e&amp;quot;:15},{&amp;quot;s&amp;quot;:0,&amp;quot;n&amp;quot;:&amp;quot;fid&amp;quot;,&amp;quot;v&amp;quot;:653,&amp;quot;e&amp;quot;:15},{&amp;quot;s&amp;quot;:0,&amp;quot;n&amp;quot;:&amp;quot;fsp&amp;quot;,&amp;quot;v&amp;quot;:&amp;quot;ss_presetShapeStyle1_textStyle&amp;quot;,&amp;quot;e&amp;quot;:15},{&amp;quot;s&amp;quot;:0,&amp;quot;n&amp;quot;:&amp;quot;s&amp;quot;,&amp;quot;v&amp;quot;:8.88888888888889,&amp;quot;e&amp;quot;:15}]}&quot; data-lucid-type=&quot;application/vnd.lucid.text&quot;&gt;&lt;span style=&quot;font-weight: bold;&quot;&gt;&amp;lt;&amp;lt;requirement&amp;gt;&amp;gt;&lt;/span&gt;&lt;/span&gt;" id="aKO-nOTtExuXH8D4YMzO-153">
          <mxCell style="text;whiteSpace=wrap;html=1;fontFamily=Georgia;verticalAlign=middle;align=center;fontSize=5;" vertex="1" parent="WIyWlLk6GJQsqaUBKTNV-1">
            <mxGeometry x="-433" y="324" width="60" as="geometry" />
          </mxCell>
        </UserObject>
        <UserObject label="&lt;span style=&quot;font-size: 4px; font-weight: 700; text-align: left;&quot;&gt;alertes de fermeture&amp;nbsp;&lt;/span&gt;" id="aKO-nOTtExuXH8D4YMzO-154">
          <mxCell style="text;whiteSpace=wrap;html=1;fontFamily=Georgia;verticalAlign=middle;align=center;fontSize=5;" vertex="1" parent="WIyWlLk6GJQsqaUBKTNV-1">
            <mxGeometry x="-463" y="333" width="120" as="geometry" />
          </mxCell>
        </UserObject>
        <mxCell id="aKO-nOTtExuXH8D4YMzO-155" value="" style="endArrow=none;html=1;rounded=0;exitX=0;exitY=0.25;exitDx=0;exitDy=0;entryX=1;entryY=0.25;entryDx=0;entryDy=0;" edge="1" parent="WIyWlLk6GJQsqaUBKTNV-1">
          <mxGeometry width="50" height="50" relative="1" as="geometry">
            <mxPoint x="-463" y="341" as="sourcePoint" />
            <mxPoint x="-343" y="341" as="targetPoint" />
          </mxGeometry>
        </mxCell>
        <mxCell id="aKO-nOTtExuXH8D4YMzO-156" value="&lt;div&gt;&lt;div&gt;&lt;div style=&quot;overflow: auto; padding: 9.144px 13.716px; text-wrap-mode: wrap; word-break: break-all; margin-top: 0px !important; margin-bottom: 0px !important;&quot;&gt;id=&quot;1.2.2&quot;&lt;br&gt;Text=&quot;l&#39;application doit afficher&amp;nbsp;&lt;span style=&quot;background-color: transparent; color: light-dark(rgb(0, 0, 0), rgb(255, 255, 255));&quot;&gt;alertes de fermeture et disponibilité en temps réel.&quot;&lt;/span&gt;&lt;/div&gt;&lt;/div&gt;&lt;/div&gt;" style="text;html=1;align=left;verticalAlign=middle;whiteSpace=wrap;rounded=0;textShadow=1;fontColor=default;fontSize=4;fontFamily=Georgia;fontStyle=1" vertex="1" parent="WIyWlLk6GJQsqaUBKTNV-1">
          <mxGeometry x="-473" y="348" width="130" height="20" as="geometry" />
        </mxCell>
        <mxCell id="aKO-nOTtExuXH8D4YMzO-157" value="" style="endArrow=circlePlus;html=1;rounded=0;endFill=0;entryX=0.25;entryY=1;entryDx=0;entryDy=0;" edge="1" parent="WIyWlLk6GJQsqaUBKTNV-1" target="aKO-nOTtExuXH8D4YMzO-58">
          <mxGeometry width="50" height="50" relative="1" as="geometry">
            <mxPoint x="-378" y="320" as="sourcePoint" />
            <mxPoint x="-336" y="273" as="targetPoint" />
            <Array as="points">
              <mxPoint x="-378" y="320" />
              <mxPoint x="-378" y="300" />
              <mxPoint x="-306" y="300" />
            </Array>
          </mxGeometry>
        </mxCell>
      </root>
    </mxGraphModel>
  </diagram>
</mxfile>
